0
SECTION
2
HEADER
9
$INSUNITS
70
4
0
ENDSEC
0
SECTION
2
TABLES
0
TABLE
2
LTYPE
0
LTYPE
72
65
70
0
2
CONTINUOUS
3
______
73
0
40
0
0
LTYPE
72
65
70
0
2
DASHED
3
_ _ _ 
73
2
40
7.5
49
5
49
-2.5
0
LTYPE
72
65
70
0
2
DOTTED
3
. . . 
73
2
40
1.5
49
0.5
49
-1
0
ENDTAB
0
TABLE
2
LAYER
0
ENDTAB
0
ENDSEC
0
SECTION
2
ENTITIES
0
LINE
8
0
6
CONTINUOUS
10
161.7923274
20
-145.9904013
11
152.1852985
21
-83.114476
0
LINE
8
0
6
CONTINUOUS
10
153.8339801
20
-80.8395365
11
172.4491375
21
-77.7411247
0
LINE
8
0
6
CONTINUOUS
10
174.1202268
20
-75.8146124
11
174.1908361
21
-72.7683881
0
LINE
8
0
6
CONTINUOUS
10
175.9849384
20
-70.8253055
11
194.1664328
21
-68.9485033
0
LINE
8
0
6
CONTINUOUS
10
195.9572245
20
-66.8350745
11
195.8451109
21
-65.0302714
0
LINE
8
0
6
CONTINUOUS
10
197.7557682
20
-62.9080995
11
221.2553326
21
-61.9026319
0
LINE
8
0
6
CONTINUOUS
10
221.2553326
20
-61.9026319
11
221.5203362
21
-61.9201411
0
LINE
8
0
6
CONTINUOUS
10
221.5203362
20
-61.9201411
11
241.1294979
21
-61.9372534
0
LINE
8
0
6
CONTINUOUS
10
243.1277386
20
-63.9298078
11
243.1453208
21
-68.6532051
0
LINE
8
0
6
CONTINUOUS
10
245.1435615
20
-70.6457595
11
288.3127144
21
-70.6834318
0
LINE
8
0
6
CONTINUOUS
10
290.3109682
20
-72.6851764
11
290.2606874
21
-130.3026709
0
LINE
8
0
6
CONTINUOUS
10
290.2308577
20
-130.6450651
11
287.496147
21
-146.301046
0
LINE
8
0
6
CONTINUOUS
10
287.2571549
20
-146.9584177
11
275.6672709
21
-166.9922903
0
LINE
8
0
6
CONTINUOUS
10
272.9345822
20
-167.7219565
11
255.4012699
21
-157.5786827
0
LINE
8
0
6
CONTINUOUS
10
254.9555657
20
-157.3886421
11
237.3350415
21
-152.2910371
0
LINE
8
0
6
CONTINUOUS
10
236.8090123
20
-152.2124768
11
215.3137856
21
-151.8924016
0
LINE
8
0
6
CONTINUOUS
10
213.3435642
20
-149.8908779
11
213.3481973
21
-144.5818025
0
LINE
8
0
6
CONTINUOUS
10
211.2823623
20
-142.581141
11
190.6397498
21
-143.2610204
0
LINE
8
0
6
CONTINUOUS
10
190.377212
20
-143.287078
11
164.0977561
21
-147.6611788
0
ARC
8
0
6
CONTINUOUS
10
154.1623536
20
-82.812395
40
2
50
99.449997
51
188.6872296
0
ARC
8
0
6
CONTINUOUS
10
172.1207639
20
-75.7682662
40
2
50
279.449997
51
358.6721604
0
ARC
8
0
6
CONTINUOUS
10
176.190299
20
-72.8147343
40
2
50
95.8935352
51
178.6721604
0
ARC
8
0
6
CONTINUOUS
10
193.9610722
20
-66.9590745
40
2
50
275.8935352
51
3.5546183
0
ARC
8
0
6
CONTINUOUS
10
197.8412632
20
-64.9062713
40
2
50
92.4499979
51
183.5546183
0
ARC
8
0
6
CONTINUOUS
10
241.1277525
20
-63.9372526
40
2
50
0.2132783
51
89.949998
0
ARC
8
0
6
CONTINUOUS
10
245.1453069
20
-68.6457603
40
2
50
180.2132783
51
269.949998
0
ARC
8
0
6
CONTINUOUS
10
288.310969
20
-72.683431
40
2
50
359.949998
51
89.949998
0
ARC
8
0
6
CONTINUOUS
10
288.2606882
20
-130.3009255
40
2
50
350.0918169
51
359.949998
0
ARC
8
0
6
CONTINUOUS
10
285.5259775
20
-145.9569065
40
2
50
329.9499968
51
350.0918169
0
ARC
8
0
6
CONTINUOUS
10
273.9360934
20
-165.9907791
40
2
50
239.9499968
51
329.9499968
0
ARC
8
0
6
CONTINUOUS
10
254.3997587
20
-159.3098601
40
2
50
59.9499968
51
73.8648812
0
ARC
8
0
6
CONTINUOUS
10
236.7792345
20
-154.2122551
40
2
50
73.8648812
51
89.1468974
0
ARC
8
0
6
CONTINUOUS
10
215.3435634
20
-149.8926233
40
2
50
179.949998
51
269.1468974
0
ARC
8
0
6
CONTINUOUS
10
211.3481981
20
-144.5800571
40
2
50
359.949998
51
91.8863974
0
ARC
8
0
6
CONTINUOUS
10
190.7055856
20
-145.2599365
40
2
50
91.8863974
51
99.449997
0
ARC
8
0
6
CONTINUOUS
10
163.7693825
20
-145.6883203
40
2
50
188.6872296
51
279.449997
0
ENDSEC
0
EOF