0
SECTION
2
HEADER
9
$INSUNITS
70
4
0
ENDSEC
0
SECTION
2
TABLES
0
TABLE
2
LTYPE
0
LTYPE
72
65
70
0
2
CONTINUOUS
3
______
73
0
40
0
0
LTYPE
72
65
70
0
2
DASHED
3
_ _ _ 
73
2
40
7.5
49
5
49
-2.5
0
LTYPE
72
65
70
0
2
DOTTED
3
. . . 
73
2
40
1.5
49
0.5
49
-1
0
ENDTAB
0
TABLE
2
LAYER
0
ENDTAB
0
ENDSEC
0
SECTION
2
ENTITIES
0
LINE
8
0
6
CONTINUOUS
10
412.937563
20
-145.9904013
11
422.5445919
21
-83.114476
0
LINE
8
0
6
CONTINUOUS
10
420.8959103
20
-80.8395365
11
402.2807529
21
-77.7411247
0
LINE
8
0
6
CONTINUOUS
10
400.6096636
20
-75.8146124
11
400.5390543
21
-72.7683881
0
LINE
8
0
6
CONTINUOUS
10
398.744952
20
-70.8253055
11
380.5634576
21
-68.9485033
0
LINE
8
0
6
CONTINUOUS
10
378.7726659
20
-66.8350745
11
378.8847795
21
-65.0302714
0
LINE
8
0
6
CONTINUOUS
10
376.9741222
20
-62.9080995
11
353.4745578
21
-61.9026319
0
LINE
8
0
6
CONTINUOUS
10
353.4745578
20
-61.9026319
11
353.2095542
21
-61.9201411
0
LINE
8
0
6
CONTINUOUS
10
353.2095542
20
-61.9201411
11
333.6003925
21
-61.9372534
0
LINE
8
0
6
CONTINUOUS
10
331.6021518
20
-63.9298078
11
331.5845696
21
-68.6532051
0
LINE
8
0
6
CONTINUOUS
10
329.5863289
20
-70.6457595
11
286.417176
21
-70.6834318
0
LINE
8
0
6
CONTINUOUS
10
284.4189222
20
-72.6851764
11
284.469203
21
-130.3026709
0
LINE
8
0
6
CONTINUOUS
10
284.4990327
20
-130.6450651
11
287.2337434
21
-146.301046
0
LINE
8
0
6
CONTINUOUS
10
287.4727355
20
-146.9584177
11
299.0626195
21
-166.9922903
0
LINE
8
0
6
CONTINUOUS
10
301.7953082
20
-167.7219565
11
319.325953
21
-157.5802259
0
LINE
8
0
6
CONTINUOUS
10
319.7774928
20
-157.3885067
11
339.2365545
21
-151.822983
0
LINE
8
0
6
CONTINUOUS
10
340.6179823
20
-149.3807626
11
336.1035102
21
-132.5911441
0
LINE
8
0
6
CONTINUOUS
10
337.4128756
20
-130.1710115
11
343.9985699
21
-128.0158631
0
LINE
8
0
6
CONTINUOUS
10
344.5495743
20
-127.9179336
11
363.2587664
21
-127.2530637
0
LINE
8
0
6
CONTINUOUS
10
363.3212686
20
-127.2518202
11
378.212354
21
-127.1883307
0
LINE
8
0
6
CONTINUOUS
10
380.219053
20
-129.2738075
11
378.9505881
21
-158.9200866
0
LINE
8
0
6
CONTINUOUS
10
380.8932839
20
-161.0048121
11
387.3980013
21
-161.1853095
0
LINE
8
0
6
CONTINUOUS
10
389.1420567
20
-160.257853
11
397.7168426
21
-146.7482824
0
LINE
8
0
6
CONTINUOUS
10
399.7337956
20
-145.8471978
11
410.6321343
21
-147.6611788
0
ARC
8
0
6
CONTINUOUS
10
420.5675368
20
-82.812395
40
2
50
351.3127704
51
80.550003
0
ARC
8
0
6
CONTINUOUS
10
402.6091265
20
-75.7682662
40
2
50
181.3278396
51
260.550003
0
ARC
8
0
6
CONTINUOUS
10
398.5395914
20
-72.8147343
40
2
50
1.3278396
51
84.1064648
0
ARC
8
0
6
CONTINUOUS
10
380.7688182
20
-66.9590745
40
2
50
176.4453817
51
264.1064648
0
ARC
8
0
6
CONTINUOUS
10
376.8886272
20
-64.9062713
40
2
50
356.4453817
51
87.5500021
0
ARC
8
0
6
CONTINUOUS
10
333.6021379
20
-63.9372526
40
2
50
90.050002
51
179.7867217
0
ARC
8
0
6
CONTINUOUS
10
329.5845835
20
-68.6457603
40
2
50
270.050002
51
359.7867217
0
ARC
8
0
6
CONTINUOUS
10
286.4189214
20
-72.683431
40
2
50
90.050002
51
180.050002
0
ARC
8
0
6
CONTINUOUS
10
286.4692022
20
-130.3009255
40
2
50
180.050002
51
189.9081831
0
ARC
8
0
6
CONTINUOUS
10
289.2039129
20
-145.9569065
40
2
50
189.9081831
51
210.0500032
0
ARC
8
0
6
CONTINUOUS
10
300.793797
20
-165.9907791
40
2
50
210.0500032
51
300.0500032
0
ARC
8
0
6
CONTINUOUS
10
320.3274642
20
-159.3114033
40
2
50
105.9611622
51
120.0500032
0
ARC
8
0
6
CONTINUOUS
10
338.6865831
20
-149.9000864
40
2
50
285.9611622
51
15.0500013
0
ARC
8
0
6
CONTINUOUS
10
338.0349094
20
-132.0718203
40
2
50
108.120524
51
195.0500013
0
ARC
8
0
6
CONTINUOUS
10
344.6206037
20
-129.9166719
40
2
50
92.0352703
51
108.120524
0
ARC
8
0
6
CONTINUOUS
10
363.3297958
20
-129.251802
40
2
50
90.244287
51
92.0352703
0
ARC
8
0
6
CONTINUOUS
10
378.2208812
20
-129.1883125
40
2
50
357.5500021
51
90.244287
0
ARC
8
0
6
CONTINUOUS
10
380.9487599
20
-159.0055816
40
2
50
177.5500021
51
268.4105258
0
ARC
8
0
6
CONTINUOUS
10
387.4534773
20
-159.186079
40
2
50
268.4105258
51
327.5959139
0
ARC
8
0
6
CONTINUOUS
10
399.405422
20
-147.8200564
40
2
50
80.550003
51
147.5959139
0
ARC
8
0
6
CONTINUOUS
10
410.9605079
20
-145.6883203
40
2
50
260.550003
51
351.3127704
0
ENDSEC
0
EOF