0
SECTION
2
HEADER
9
$INSUNITS
70
4
0
ENDSEC
0
SECTION
2
TABLES
0
TABLE
2
LTYPE
0
LTYPE
72
65
70
0
2
CONTINUOUS
3
______
73
0
40
0
0
LTYPE
72
65
70
0
2
DASHED
3
_ _ _ 
73
2
40
7.5
49
5
49
-2.5
0
LTYPE
72
65
70
0
2
DOTTED
3
. . . 
73
2
40
1.5
49
0.5
49
-1
0
ENDTAB
0
TABLE
2
LAYER
0
ENDTAB
0
ENDSEC
0
SECTION
2
ENTITIES
0
LINE
8
0
6
CONTINUOUS
10
161.7923274
20
-145.9904013
11
152.1852985
21
-83.114476
0
LINE
8
0
6
CONTINUOUS
10
153.8339801
20
-80.8395365
11
172.4491375
21
-77.7411247
0
LINE
8
0
6
CONTINUOUS
10
174.1202268
20
-75.8146124
11
174.1908361
21
-72.7683881
0
LINE
8
0
6
CONTINUOUS
10
175.9849384
20
-70.8253055
11
194.1664328
21
-68.9485033
0
LINE
8
0
6
CONTINUOUS
10
195.9572245
20
-66.8350745
11
195.8451109
21
-65.0302714
0
LINE
8
0
6
CONTINUOUS
10
197.7557682
20
-62.9080995
11
221.2553326
21
-61.9026319
0
LINE
8
0
6
CONTINUOUS
10
221.2553326
20
-61.9026319
11
221.5203362
21
-61.9201411
0
LINE
8
0
6
CONTINUOUS
10
221.5203362
20
-61.9201411
11
241.1294979
21
-61.9372534
0
LINE
8
0
6
CONTINUOUS
10
243.1277386
20
-63.9298078
11
243.1453208
21
-68.6532051
0
LINE
8
0
6
CONTINUOUS
10
245.1435615
20
-70.6457595
11
288.3127144
21
-70.6834318
0
LINE
8
0
6
CONTINUOUS
10
290.3109682
20
-72.6851764
11
290.2606874
21
-130.3026709
0
LINE
8
0
6
CONTINUOUS
10
290.2308577
20
-130.6450651
11
287.496147
21
-146.301046
0
LINE
8
0
6
CONTINUOUS
10
287.2571549
20
-146.9584177
11
275.6672709
21
-166.9922903
0
LINE
8
0
6
CONTINUOUS
10
272.9345822
20
-167.7219565
11
255.4012699
21
-157.5786827
0
LINE
8
0
6
CONTINUOUS
10
254.9555657
20
-157.3886421
11
237.3350415
21
-152.2910371
0
LINE
8
0
6
CONTINUOUS
10
236.8090123
20
-152.2124768
11
215.3137856
21
-151.8924016
0
LINE
8
0
6
CONTINUOUS
10
213.3435642
20
-149.8908779
11
213.3481973
21
-144.5818025
0
LINE
8
0
6
CONTINUOUS
10
211.2823623
20
-142.581141
11
190.6397498
21
-143.2610204
0
LINE
8
0
6
CONTINUOUS
10
190.377212
20
-143.287078
11
164.0977561
21
-147.6611788
0
ARC
8
0
6
CONTINUOUS
10
154.1623536
20
-82.812395
40
2
50
99.449997
51
188.6872296
0
ARC
8
0
6
CONTINUOUS
10
172.1207639
20
-75.7682662
40
2
50
279.449997
51
358.6721604
0
ARC
8
0
6
CONTINUOUS
10
176.190299
20
-72.8147343
40
2
50
95.8935352
51
178.6721604
0
ARC
8
0
6
CONTINUOUS
10
193.9610722
20
-66.9590745
40
2
50
275.8935352
51
3.5546183
0
ARC
8
0
6
CONTINUOUS
10
197.8412632
20
-64.9062713
40
2
50
92.4499979
51
183.5546183
0
ARC
8
0
6
CONTINUOUS
10
241.1277525
20
-63.9372526
40
2
50
0.2132783
51
89.949998
0
ARC
8
0
6
CONTINUOUS
10
245.1453069
20
-68.6457603
40
2
50
180.2132783
51
269.949998
0
ARC
8
0
6
CONTINUOUS
10
288.310969
20
-72.683431
40
2
50
359.949998
51
89.949998
0
ARC
8
0
6
CONTINUOUS
10
288.2606882
20
-130.3009255
40
2
50
350.0918169
51
359.949998
0
ARC
8
0
6
CONTINUOUS
10
285.5259775
20
-145.9569065
40
2
50
329.9499968
51
350.0918169
0
ARC
8
0
6
CONTINUOUS
10
273.9360934
20
-165.9907791
40
2
50
239.9499968
51
329.9499968
0
ARC
8
0
6
CONTINUOUS
10
254.3997587
20
-159.3098601
40
2
50
59.9499968
51
73.8648812
0
ARC
8
0
6
CONTINUOUS
10
236.7792345
20
-154.2122551
40
2
50
73.8648812
51
89.1468974
0
ARC
8
0
6
CONTINUOUS
10
215.3435634
20
-149.8926233
40
2
50
179.949998
51
269.1468974
0
ARC
8
0
6
CONTINUOUS
10
211.3481981
20
-144.5800571
40
2
50
359.949998
51
91.8863974
0
ARC
8
0
6
CONTINUOUS
10
190.7055856
20
-145.2599365
40
2
50
91.8863974
51
99.449997
0
ARC
8
0
6
CONTINUOUS
10
163.7693825
20
-145.6883203
40
2
50
188.6872296
51
279.449997
0
LINE
8
0
6
CONTINUOUS
10
167.9032791
20
-140.8438457
11
182.699718
21
-138.381043
0
LINE
8
0
6
CONTINUOUS
10
182.699718
20
-138.381043
11
180.2369153
21
-123.5846041
0
LINE
8
0
6
CONTINUOUS
10
180.2369153
20
-123.5846041
11
165.4404764
21
-126.0474068
0
LINE
8
0
6
CONTINUOUS
10
165.4404764
20
-126.0474068
11
167.9032791
21
-140.8438457
0
LINE
8
0
6
CONTINUOUS
10
165.046428
20
-123.6799766
11
179.8428669
21
-121.2171739
0
LINE
8
0
6
CONTINUOUS
10
179.8428669
20
-121.2171739
11
177.3800642
21
-106.420735
0
LINE
8
0
6
CONTINUOUS
10
177.3800642
20
-106.420735
11
162.5836253
21
-108.8835377
0
LINE
8
0
6
CONTINUOUS
10
162.5836253
20
-108.8835377
11
165.046428
21
-123.6799766
0
LINE
8
0
6
CONTINUOUS
10
162.1895768
20
-106.5161076
11
176.9860157
21
-104.0533049
0
LINE
8
0
6
CONTINUOUS
10
176.9860157
20
-104.0533049
11
174.523213
21
-89.256866
0
LINE
8
0
6
CONTINUOUS
10
174.523213
20
-89.256866
11
159.7267741
21
-91.7196687
0
LINE
8
0
6
CONTINUOUS
10
159.7267741
20
-91.7196687
11
162.1895768
21
-106.5161076
0
LINE
8
0
6
CONTINUOUS
10
185.0746723
20
-125.2717609
11
200.0068642
21
-123.8471048
0
LINE
8
0
6
CONTINUOUS
10
200.0068642
20
-123.8471048
11
198.5822081
21
-108.9149129
0
LINE
8
0
6
CONTINUOUS
10
198.5822081
20
-108.9149129
11
183.6500162
21
-110.339569
0
LINE
8
0
6
CONTINUOUS
10
183.6500162
20
-110.339569
11
185.0746723
21
-125.2717609
0
LINE
8
0
6
CONTINUOUS
10
183.4220712
20
-107.9504183
11
198.3542631
21
-106.5257622
0
LINE
8
0
6
CONTINUOUS
10
198.3542631
20
-106.5257622
11
196.929607
21
-91.5935703
0
LINE
8
0
6
CONTINUOUS
10
196.929607
20
-91.5935703
11
181.9974151
21
-93.0182264
0
LINE
8
0
6
CONTINUOUS
10
181.9974151
20
-93.0182264
11
183.4220712
21
-107.9504183
0
LINE
8
0
6
CONTINUOUS
10
181.7694702
20
-90.6290756
11
196.7016621
21
-89.2044195
0
LINE
8
0
6
CONTINUOUS
10
196.7016621
20
-89.2044195
11
195.277006
21
-74.2722276
0
LINE
8
0
6
CONTINUOUS
10
195.277006
20
-74.2722276
11
180.3448141
21
-75.6968837
0
LINE
8
0
6
CONTINUOUS
10
180.3448141
20
-75.6968837
11
181.7694702
21
-90.6290756
0
LINE
8
0
6
CONTINUOUS
10
203.4978894
20
-117.082158
11
218.484178
21
-116.440945
0
LINE
8
0
6
CONTINUOUS
10
218.484178
20
-116.440945
11
217.842965
21
-101.4546564
0
LINE
8
0
6
CONTINUOUS
10
217.842965
20
-101.4546564
11
202.8566764
21
-102.0958694
0
LINE
8
0
6
CONTINUOUS
10
202.8566764
20
-102.0958694
11
203.4978894
21
-117.082158
0
LINE
8
0
6
CONTINUOUS
10
202.7540823
20
-99.6980633
11
217.7403709
21
-99.0568503
0
LINE
8
0
6
CONTINUOUS
10
217.7403709
20
-99.0568503
11
217.0991579
21
-84.0705617
0
LINE
8
0
6
CONTINUOUS
10
217.0991579
20
-84.0705617
11
202.1128693
21
-84.7117747
0
LINE
8
0
6
CONTINUOUS
10
202.1128693
20
-84.7117747
11
202.7540823
21
-99.6980633
0
LINE
8
0
6
CONTINUOUS
10
202.0102752
20
-82.3139686
11
216.9965638
21
-81.6727556
0
LINE
8
0
6
CONTINUOUS
10
216.9965638
20
-81.6727556
11
216.3553508
21
-66.686467
0
LINE
8
0
6
CONTINUOUS
10
216.3553508
20
-66.686467
11
201.3690622
21
-67.32768
0
LINE
8
0
6
CONTINUOUS
10
201.3690622
20
-67.32768
11
202.0102752
21
-82.3139686
0
LINE
8
0
6
CONTINUOUS
10
222.9666668
20
-123.4214268
11
237.9666611
21
-123.4345167
0
LINE
8
0
6
CONTINUOUS
10
237.9666611
20
-123.4345167
11
237.979751
21
-108.4345224
0
LINE
8
0
6
CONTINUOUS
10
237.979751
20
-108.4345224
11
222.9797567
21
-108.4214325
0
LINE
8
0
6
CONTINUOUS
10
222.9797567
20
-108.4214325
11
222.9666668
21
-123.4214268
0
LINE
8
0
6
CONTINUOUS
10
222.9818511
20
-106.0214334
11
237.9818454
21
-106.0345233
0
LINE
8
0
6
CONTINUOUS
10
237.9818454
20
-106.0345233
11
237.9949353
21
-91.034529
0
LINE
8
0
6
CONTINUOUS
10
237.9949353
20
-91.034529
11
222.994941
21
-91.0214391
0
LINE
8
0
6
CONTINUOUS
10
222.994941
20
-91.0214391
11
222.9818511
21
-106.0214334
0
LINE
8
0
6
CONTINUOUS
10
222.9970355
20
-88.62144
11
237.9970298
21
-88.6345299
0
LINE
8
0
6
CONTINUOUS
10
237.9970298
20
-88.6345299
11
238.0101197
21
-73.6345356
0
LINE
8
0
6
CONTINUOUS
10
238.0101197
20
-73.6345356
11
223.0101254
21
-73.6214457
0
LINE
8
0
6
CONTINUOUS
10
223.0101254
20
-73.6214457
11
222.9970355
21
-88.62144
0
LINE
8
0
6
CONTINUOUS
10
241.3649145
20
-125.437483
11
256.3649088
21
-125.4505729
0
LINE
8
0
6
CONTINUOUS
10
256.3649088
20
-125.4505729
11
256.3779987
21
-110.4505786
0
LINE
8
0
6
CONTINUOUS
10
256.3779987
20
-110.4505786
11
241.3780044
21
-110.4374887
0
LINE
8
0
6
CONTINUOUS
10
241.3780044
20
-110.4374887
11
241.3649145
21
-125.437483
0
LINE
8
0
6
CONTINUOUS
10
241.3800988
20
-108.0374896
11
256.3800931
21
-108.0505795
0
LINE
8
0
6
CONTINUOUS
10
256.3800931
20
-108.0505795
11
256.393183
21
-93.0505852
0
LINE
8
0
6
CONTINUOUS
10
256.393183
20
-93.0505852
11
241.3931887
21
-93.0374953
0
LINE
8
0
6
CONTINUOUS
10
241.3931887
20
-93.0374953
11
241.3800988
21
-108.0374896
0
LINE
8
0
6
CONTINUOUS
10
241.3952832
20
-90.6374962
11
256.3952775
21
-90.6505861
0
LINE
8
0
6
CONTINUOUS
10
256.3952775
20
-90.6505861
11
256.4083674
21
-75.6505918
0
LINE
8
0
6
CONTINUOUS
10
256.4083674
20
-75.6505918
11
241.4083731
21
-75.6375019
0
LINE
8
0
6
CONTINUOUS
10
241.4083731
20
-75.6375019
11
241.3952832
21
-90.6374962
0
LINE
8
0
6
CONTINUOUS
10
219.3464224
20
-146.6182763
11
234.3464167
21
-146.6313662
0
LINE
8
0
6
CONTINUOUS
10
234.3464167
20
-146.6313662
11
234.3595066
21
-131.6313719
0
LINE
8
0
6
CONTINUOUS
10
234.3595066
20
-131.6313719
11
219.3595123
21
-131.618282
0
LINE
8
0
6
CONTINUOUS
10
219.3595123
20
-131.618282
11
219.3464224
21
-146.6182763
0
LINE
8
0
6
CONTINUOUS
10
239.8890709
20
-147.5360416
11
254.3745648
21
-151.4309697
0
LINE
8
0
6
CONTINUOUS
10
254.3745648
20
-151.4309697
11
258.2694929
21
-136.9454758
0
LINE
8
0
6
CONTINUOUS
10
258.2694929
20
-136.9454758
11
243.783999
21
-133.0505477
0
LINE
8
0
6
CONTINUOUS
10
243.783999
20
-133.0505477
11
239.8890709
21
-147.5360416
0
LINE
8
0
6
CONTINUOUS
10
259.1173629
20
-153.6632601
11
272.1011941
21
-161.1745935
0
LINE
8
0
6
CONTINUOUS
10
272.1011941
20
-161.1745935
11
279.6125275
21
-148.1907623
0
LINE
8
0
6
CONTINUOUS
10
279.6125275
20
-148.1907623
11
266.6286963
21
-140.6794289
0
LINE
8
0
6
CONTINUOUS
10
266.6286963
20
-140.6794289
11
259.1173629
21
-153.6632601
0
CIRCLE
8
0
6
CONTINUOUS
10
166.1070351
20
-84.372406
40
2.2
0
CIRCLE
8
0
6
CONTINUOUS
10
230.5155331
20
-67.427993
40
2.2
0
CIRCLE
8
0
6
CONTINUOUS
10
285.3084873
20
-75.5258119
40
2.2
0
CIRCLE
8
0
6
CONTINUOUS
10
275.8640287
20
-126.4675895
40
2.2
0
CIRCLE
8
0
6
CONTINUOUS
10
211.2560685
20
-122.9558841
40
2.2
0
LINE
8
0
6
CONTINUOUS
10
261.8839308
20
-103.6553808
11
279.8839239
21
-103.6710888
0
LINE
8
0
6
CONTINUOUS
10
279.8839239
20
-103.6710888
11
279.9127218
21
-70.6711014
0
LINE
8
0
6
CONTINUOUS
10
279.9127218
20
-70.6711014
11
261.9127287
21
-70.6553934
0
LINE
8
0
6
CONTINUOUS
10
261.9127287
20
-70.6553934
11
261.8839308
21
-103.6553808
0
LINE
8
0
6
CONTINUOUS
10
290.3340588
20
-114.9802126
11
290.3392948
21
-108.9802149
0
LINE
8
0
6
CONTINUOUS
10
290.3392948
20
-108.9802149
11
278.3392994
21
-108.969743
0
LINE
8
0
6
CONTINUOUS
10
278.3392994
20
-108.969743
11
278.3340634
21
-114.9697407
0
LINE
8
0
6
CONTINUOUS
10
278.3340634
20
-114.9697407
11
290.3340588
21
-114.9802126
0
CIRCLE
8
0
6
CONTINUOUS
10
174.0700972
20
-132.2142249
40
1
0
CIRCLE
8
0
6
CONTINUOUS
10
171.2132461
20
-115.0503558
40
1
0
CIRCLE
8
0
6
CONTINUOUS
10
168.3563949
20
-97.8864868
40
1
0
CIRCLE
8
0
6
CONTINUOUS
10
191.8284402
20
-117.0933369
40
1
0
CIRCLE
8
0
6
CONTINUOUS
10
190.1758391
20
-99.7719943
40
1
0
CIRCLE
8
0
6
CONTINUOUS
10
188.5232381
20
-82.4506516
40
1
0
CIRCLE
8
0
6
CONTINUOUS
10
210.6704272
20
-109.2684072
40
1
0
CIRCLE
8
0
6
CONTINUOUS
10
209.9266201
20
-91.8843125
40
1
0
CIRCLE
8
0
6
CONTINUOUS
10
209.182813
20
-74.5002178
40
1
0
CIRCLE
8
0
6
CONTINUOUS
10
230.4732089
20
-115.9279746
40
1
0
CIRCLE
8
0
6
CONTINUOUS
10
230.4883932
20
-98.5279812
40
1
0
CIRCLE
8
0
6
CONTINUOUS
10
230.5035776
20
-81.1279878
40
1
0
CIRCLE
8
0
6
CONTINUOUS
10
248.8714566
20
-117.9440308
40
1
0
CIRCLE
8
0
6
CONTINUOUS
10
248.8866409
20
-100.5440374
40
1
0
CIRCLE
8
0
6
CONTINUOUS
10
248.9018253
20
-83.144044
40
1
0
CIRCLE
8
0
6
CONTINUOUS
10
226.8529645
20
-139.1248241
40
1
0
CIRCLE
8
0
6
CONTINUOUS
10
249.0792819
20
-142.2407587
40
1
0
CIRCLE
8
0
6
CONTINUOUS
10
269.3649452
20
-150.9270112
40
1
0
LINE
8
0
6
CONTINUOUS
10
166.5878221
20
-142.0765552
11
184.3435487
21
-139.121192
0
LINE
8
0
6
CONTINUOUS
10
184.3435487
20
-139.121192
11
181.5523723
21
-122.3518946
0
LINE
8
0
6
CONTINUOUS
10
181.5523723
20
-122.3518946
11
163.7966457
21
-125.3072578
0
LINE
8
0
6
CONTINUOUS
10
163.7966457
20
-125.3072578
11
166.5878221
21
-142.0765552
0
LINE
8
0
6
CONTINUOUS
10
163.730971
20
-124.9126861
11
181.4866976
21
-121.9573229
0
LINE
8
0
6
CONTINUOUS
10
181.4866976
20
-121.9573229
11
178.6955212
21
-105.1880255
0
LINE
8
0
6
CONTINUOUS
10
178.6955212
20
-105.1880255
11
160.9397946
21
-108.1433887
0
LINE
8
0
6
CONTINUOUS
10
160.9397946
20
-108.1433887
11
163.730971
21
-124.9126861
0
LINE
8
0
6
CONTINUOUS
10
160.8741198
20
-107.7488171
11
178.6298464
21
-104.7934539
0
LINE
8
0
6
CONTINUOUS
10
178.6298464
20
-104.7934539
11
175.83867
21
-88.0241565
0
LINE
8
0
6
CONTINUOUS
10
175.83867
20
-88.0241565
11
158.0829434
21
-90.9795197
0
LINE
8
0
6
CONTINUOUS
10
158.0829434
20
-90.9795197
11
160.8741198
21
-107.7488171
0
LINE
8
0
6
CONTINUOUS
10
183.6764301
20
-126.4097059
11
201.5950604
21
-124.7001187
0
LINE
8
0
6
CONTINUOUS
10
201.5950604
20
-124.7001187
11
199.9804503
21
-107.7769679
0
LINE
8
0
6
CONTINUOUS
10
199.9804503
20
-107.7769679
11
182.06182
21
-109.4865551
0
LINE
8
0
6
CONTINUOUS
10
182.06182
20
-109.4865551
11
183.6764301
21
-126.4097059
0
LINE
8
0
6
CONTINUOUS
10
182.023829
20
-109.0883633
11
199.9424593
21
-107.3787761
0
LINE
8
0
6
CONTINUOUS
10
199.9424593
20
-107.3787761
11
198.3278492
21
-90.4556253
0
LINE
8
0
6
CONTINUOUS
10
198.3278492
20
-90.4556253
11
180.4092189
21
-92.1652125
0
LINE
8
0
6
CONTINUOUS
10
180.4092189
20
-92.1652125
11
182.023829
21
-109.0883633
0
LINE
8
0
6
CONTINUOUS
10
180.371228
20
-91.7670206
11
198.2898583
21
-90.0574334
0
LINE
8
0
6
CONTINUOUS
10
198.2898583
20
-90.0574334
11
196.6752482
21
-73.1342826
0
LINE
8
0
6
CONTINUOUS
10
196.6752482
20
-73.1342826
11
178.7566179
21
-74.8438698
0
LINE
8
0
6
CONTINUOUS
10
178.7566179
20
-74.8438698
11
180.371228
21
-91.7670206
0
LINE
8
0
6
CONTINUOUS
10
202.0420081
20
-118.1453652
11
220.0255544
21
-117.3759096
0
LINE
8
0
6
CONTINUOUS
10
220.0255544
20
-117.3759096
11
219.2988463
21
-100.3914492
0
LINE
8
0
6
CONTINUOUS
10
219.2988463
20
-100.3914492
11
201.3153
21
-101.1609048
0
LINE
8
0
6
CONTINUOUS
10
201.3153
20
-101.1609048
11
202.0420081
21
-118.1453652
0
LINE
8
0
6
CONTINUOUS
10
201.298201
20
-100.7612705
11
219.2817473
21
-99.9918149
0
LINE
8
0
6
CONTINUOUS
10
219.2817473
20
-99.9918149
11
218.5550392
21
-83.0073545
0
LINE
8
0
6
CONTINUOUS
10
218.5550392
20
-83.0073545
11
200.5714929
21
-83.7768101
0
LINE
8
0
6
CONTINUOUS
10
200.5714929
20
-83.7768101
11
201.298201
21
-100.7612705
0
LINE
8
0
6
CONTINUOUS
10
200.5543939
20
-83.3771758
11
218.5379402
21
-82.6077202
0
LINE
8
0
6
CONTINUOUS
10
218.5379402
20
-82.6077202
11
217.8112321
21
-65.6232598
0
LINE
8
0
6
CONTINUOUS
10
217.8112321
20
-65.6232598
11
199.8276858
21
-66.3927154
0
LINE
8
0
6
CONTINUOUS
10
199.8276858
20
-66.3927154
11
200.5543939
21
-83.3771758
0
LINE
8
0
6
CONTINUOUS
10
221.4657947
20
-124.4201174
11
239.4657878
21
-124.4358253
0
LINE
8
0
6
CONTINUOUS
10
239.4657878
20
-124.4358253
11
239.4806231
21
-107.4358318
0
LINE
8
0
6
CONTINUOUS
10
239.4806231
20
-107.4358318
11
221.48063
21
-107.4201239
0
LINE
8
0
6
CONTINUOUS
10
221.48063
20
-107.4201239
11
221.4657947
21
-124.4201174
0
LINE
8
0
6
CONTINUOUS
10
221.480979
20
-107.020124
11
239.4809721
21
-107.0358319
0
LINE
8
0
6
CONTINUOUS
10
239.4809721
20
-107.0358319
11
239.4958074
21
-90.0358384
0
LINE
8
0
6
CONTINUOUS
10
239.4958074
20
-90.0358384
11
221.4958143
21
-90.0201305
0
LINE
8
0
6
CONTINUOUS
10
221.4958143
20
-90.0201305
11
221.480979
21
-107.020124
0
LINE
8
0
6
CONTINUOUS
10
221.4961634
20
-89.6201306
11
239.4961565
21
-89.6358385
0
LINE
8
0
6
CONTINUOUS
10
239.4961565
20
-89.6358385
11
239.5109918
21
-72.635845
0
LINE
8
0
6
CONTINUOUS
10
239.5109918
20
-72.635845
11
221.5109987
21
-72.6201371
0
LINE
8
0
6
CONTINUOUS
10
221.5109987
20
-72.6201371
11
221.4961634
21
-89.6201306
0
LINE
8
0
6
CONTINUOUS
10
239.8640424
20
-126.4361736
11
257.8640355
21
-126.4518815
0
LINE
8
0
6
CONTINUOUS
10
257.8640355
20
-126.4518815
11
257.8788708
21
-109.451888
0
LINE
8
0
6
CONTINUOUS
10
257.8788708
20
-109.451888
11
239.8788777
21
-109.4361801
0
LINE
8
0
6
CONTINUOUS
10
239.8788777
20
-109.4361801
11
239.8640424
21
-126.4361736
0
LINE
8
0
6
CONTINUOUS
10
239.8792267
20
-109.0361802
11
257.8792198
21
-109.0518881
0
LINE
8
0
6
CONTINUOUS
10
257.8792198
20
-109.0518881
11
257.8940551
21
-92.0518946
0
LINE
8
0
6
CONTINUOUS
10
257.8940551
20
-92.0518946
11
239.894062
21
-92.0361867
0
LINE
8
0
6
CONTINUOUS
10
239.894062
20
-92.0361867
11
239.8792267
21
-109.0361802
0
LINE
8
0
6
CONTINUOUS
10
239.8944111
20
-91.6361868
11
257.8944042
21
-91.6518947
0
LINE
8
0
6
CONTINUOUS
10
257.8944042
20
-91.6518947
11
257.9092395
21
-74.6519012
0
LINE
8
0
6
CONTINUOUS
10
257.9092395
20
-74.6519012
11
239.9092464
21
-74.6361933
0
LINE
8
0
6
CONTINUOUS
10
239.9092464
20
-74.6361933
11
239.8944111
21
-91.6361868
0
LINE
8
0
6
CONTINUOUS
10
217.8455503
20
-147.6169669
11
235.8455434
21
-147.6326748
0
LINE
8
0
6
CONTINUOUS
10
235.8455434
20
-147.6326748
11
235.8603787
21
-130.6326813
0
LINE
8
0
6
CONTINUOUS
10
235.8603787
20
-130.6326813
11
217.8603856
21
-130.6169734
0
LINE
8
0
6
CONTINUOUS
10
217.8603856
20
-130.6169734
11
217.8455503
21
-147.6169669
0
LINE
8
0
6
CONTINUOUS
10
238.1808596
20
-148.1122484
11
255.5634523
21
-152.7861622
0
LINE
8
0
6
CONTINUOUS
10
255.5634523
20
-152.7861622
11
259.9777042
21
-136.369269
0
LINE
8
0
6
CONTINUOUS
10
259.9777042
20
-136.369269
11
242.5951115
21
-131.6953552
0
LINE
8
0
6
CONTINUOUS
10
242.5951115
20
-131.6953552
11
238.1808596
21
-148.1122484
0
LINE
8
0
6
CONTINUOUS
10
257.3182243
20
-153.7777155
11
272.8988216
21
-162.7913155
0
LINE
8
0
6
CONTINUOUS
10
272.8988216
20
-162.7913155
11
281.4116661
21
-148.0763069
0
LINE
8
0
6
CONTINUOUS
10
281.4116661
20
-148.0763069
11
265.8310688
21
-139.0627069
0
LINE
8
0
6
CONTINUOUS
10
265.8310688
20
-139.0627069
11
257.3182243
21
-153.7777155
0
ENDSEC
0
EOF