0
SECTION
2
HEADER
9
$INSUNITS
70
4
0
ENDSEC
0
SECTION
2
TABLES
0
TABLE
2
LTYPE
0
LTYPE
72
65
70
0
2
CONTINUOUS
3
______
73
0
40
0
0
LTYPE
72
65
70
0
2
DASHED
3
_ _ _ 
73
2
40
7.5
49
5
49
-2.5
0
LTYPE
72
65
70
0
2
DOTTED
3
. . . 
73
2
40
1.5
49
0.5
49
-1
0
ENDTAB
0
TABLE
2
LAYER
0
ENDTAB
0
ENDSEC
0
SECTION
2
ENTITIES
0
LINE
8
0
6
CONTINUOUS
10
412.937563
20
-145.9904013
11
422.5445919
21
-83.114476
0
LINE
8
0
6
CONTINUOUS
10
420.8959103
20
-80.8395365
11
402.2807529
21
-77.7411247
0
LINE
8
0
6
CONTINUOUS
10
400.6096636
20
-75.8146124
11
400.5390543
21
-72.7683881
0
LINE
8
0
6
CONTINUOUS
10
398.744952
20
-70.8253055
11
380.5634576
21
-68.9485033
0
LINE
8
0
6
CONTINUOUS
10
378.7726659
20
-66.8350745
11
378.8847795
21
-65.0302714
0
LINE
8
0
6
CONTINUOUS
10
376.9741222
20
-62.9080995
11
353.4745578
21
-61.9026319
0
LINE
8
0
6
CONTINUOUS
10
353.4745578
20
-61.9026319
11
353.2095542
21
-61.9201411
0
LINE
8
0
6
CONTINUOUS
10
353.2095542
20
-61.9201411
11
333.6003925
21
-61.9372534
0
LINE
8
0
6
CONTINUOUS
10
331.6021518
20
-63.9298078
11
331.5845696
21
-68.6532051
0
LINE
8
0
6
CONTINUOUS
10
329.5863289
20
-70.6457595
11
286.417176
21
-70.6834318
0
LINE
8
0
6
CONTINUOUS
10
284.4189222
20
-72.6851764
11
284.469203
21
-130.3026709
0
LINE
8
0
6
CONTINUOUS
10
284.4990327
20
-130.6450651
11
287.2337434
21
-146.301046
0
LINE
8
0
6
CONTINUOUS
10
287.4727355
20
-146.9584177
11
299.0626195
21
-166.9922903
0
LINE
8
0
6
CONTINUOUS
10
301.7953082
20
-167.7219565
11
319.325953
21
-157.5802259
0
LINE
8
0
6
CONTINUOUS
10
319.7774928
20
-157.3885067
11
339.2365545
21
-151.822983
0
LINE
8
0
6
CONTINUOUS
10
340.6179823
20
-149.3807626
11
336.1035102
21
-132.5911441
0
LINE
8
0
6
CONTINUOUS
10
337.4128756
20
-130.1710115
11
343.9985699
21
-128.0158631
0
LINE
8
0
6
CONTINUOUS
10
344.5495743
20
-127.9179336
11
363.2587664
21
-127.2530637
0
LINE
8
0
6
CONTINUOUS
10
363.3212686
20
-127.2518202
11
378.212354
21
-127.1883307
0
LINE
8
0
6
CONTINUOUS
10
378.9505881
20
-158.9200866
11
380.219053
21
-129.2738075
0
LINE
8
0
6
CONTINUOUS
10
380.8932839
20
-161.0048121
11
387.3980013
21
-161.1853095
0
LINE
8
0
6
CONTINUOUS
10
389.1420567
20
-160.257853
11
397.7168426
21
-146.7482824
0
LINE
8
0
6
CONTINUOUS
10
399.7337956
20
-145.8471978
11
410.6321343
21
-147.6611788
0
ARC
8
0
6
CONTINUOUS
10
420.5675368
20
-82.812395
40
2
50
351.3127704
51
80.550003
0
ARC
8
0
6
CONTINUOUS
10
402.6091265
20
-75.7682662
40
2
50
181.3278396
51
260.550003
0
ARC
8
0
6
CONTINUOUS
10
398.5395914
20
-72.8147343
40
2
50
1.3278396
51
84.1064648
0
ARC
8
0
6
CONTINUOUS
10
380.7688182
20
-66.9590745
40
2
50
176.4453817
51
264.1064648
0
ARC
8
0
6
CONTINUOUS
10
376.8886272
20
-64.9062713
40
2
50
356.4453817
51
87.5500021
0
ARC
8
0
6
CONTINUOUS
10
333.6021379
20
-63.9372526
40
2
50
90.050002
51
179.7867217
0
ARC
8
0
6
CONTINUOUS
10
329.5845835
20
-68.6457603
40
2
50
270.050002
51
359.7867217
0
ARC
8
0
6
CONTINUOUS
10
286.4189214
20
-72.683431
40
2
50
90.050002
51
180.050002
0
ARC
8
0
6
CONTINUOUS
10
286.4692022
20
-130.3009255
40
2
50
180.050002
51
189.9081831
0
ARC
8
0
6
CONTINUOUS
10
289.2039129
20
-145.9569065
40
2
50
189.9081831
51
210.0500032
0
ARC
8
0
6
CONTINUOUS
10
300.793797
20
-165.9907791
40
2
50
210.0500032
51
300.0500032
0
ARC
8
0
6
CONTINUOUS
10
320.3274642
20
-159.3114033
40
2
50
105.9611622
51
120.0500032
0
ARC
8
0
6
CONTINUOUS
10
338.6865831
20
-149.9000864
40
2
50
285.9611622
51
15.0500013
0
ARC
8
0
6
CONTINUOUS
10
338.0349094
20
-132.0718203
40
2
50
108.120524
51
195.0500013
0
ARC
8
0
6
CONTINUOUS
10
344.6206037
20
-129.9166719
40
2
50
92.0352703
51
108.120524
0
ARC
8
0
6
CONTINUOUS
10
363.3297958
20
-129.251802
40
2
50
90.244287
51
92.0352703
0
ARC
8
0
6
CONTINUOUS
10
378.2208812
20
-129.1883125
40
2
50
357.5500021
51
90.244287
0
ARC
8
0
6
CONTINUOUS
10
380.9487599
20
-159.0055816
40
2
50
177.5500021
51
268.4105258
0
ARC
8
0
6
CONTINUOUS
10
387.4534773
20
-159.186079
40
2
50
268.4105258
51
327.5959139
0
ARC
8
0
6
CONTINUOUS
10
399.405422
20
-147.8200564
40
2
50
80.550003
51
147.5959139
0
ARC
8
0
6
CONTINUOUS
10
410.9605079
20
-145.6883203
40
2
50
260.550003
51
351.3127704
0
LINE
8
0
6
CONTINUOUS
10
392.0301724
20
-138.381043
11
406.8266113
21
-140.8438457
0
LINE
8
0
6
CONTINUOUS
10
406.8266113
20
-140.8438457
11
409.289414
21
-126.0474068
0
LINE
8
0
6
CONTINUOUS
10
409.289414
20
-126.0474068
11
394.4929751
21
-123.5846041
0
LINE
8
0
6
CONTINUOUS
10
394.4929751
20
-123.5846041
11
392.0301724
21
-138.381043
0
LINE
8
0
6
CONTINUOUS
10
394.8870235
20
-121.2171739
11
409.6834624
21
-123.6799766
0
LINE
8
0
6
CONTINUOUS
10
409.6834624
20
-123.6799766
11
412.1462651
21
-108.8835377
0
LINE
8
0
6
CONTINUOUS
10
412.1462651
20
-108.8835377
11
397.3498262
21
-106.420735
0
LINE
8
0
6
CONTINUOUS
10
397.3498262
20
-106.420735
11
394.8870235
21
-121.2171739
0
LINE
8
0
6
CONTINUOUS
10
397.7438747
20
-104.0533049
11
412.5403136
21
-106.5161076
0
LINE
8
0
6
CONTINUOUS
10
412.5403136
20
-106.5161076
11
415.0031163
21
-91.7196687
0
LINE
8
0
6
CONTINUOUS
10
415.0031163
20
-91.7196687
11
400.2066774
21
-89.256866
0
LINE
8
0
6
CONTINUOUS
10
400.2066774
20
-89.256866
11
397.7438747
21
-104.0533049
0
LINE
8
0
6
CONTINUOUS
10
374.7230262
20
-123.8471048
11
389.6552181
21
-125.2717609
0
LINE
8
0
6
CONTINUOUS
10
389.6552181
20
-125.2717609
11
391.0798742
21
-110.339569
0
LINE
8
0
6
CONTINUOUS
10
391.0798742
20
-110.339569
11
376.1476823
21
-108.9149129
0
LINE
8
0
6
CONTINUOUS
10
376.1476823
20
-108.9149129
11
374.7230262
21
-123.8471048
0
LINE
8
0
6
CONTINUOUS
10
376.3756273
20
-106.5257622
11
391.3078192
21
-107.9504183
0
LINE
8
0
6
CONTINUOUS
10
391.3078192
20
-107.9504183
11
392.7324753
21
-93.0182264
0
LINE
8
0
6
CONTINUOUS
10
392.7324753
20
-93.0182264
11
377.8002834
21
-91.5935703
0
LINE
8
0
6
CONTINUOUS
10
377.8002834
20
-91.5935703
11
376.3756273
21
-106.5257622
0
LINE
8
0
6
CONTINUOUS
10
378.0282283
20
-89.2044195
11
392.9604202
21
-90.6290756
0
LINE
8
0
6
CONTINUOUS
10
392.9604202
20
-90.6290756
11
394.3850763
21
-75.6968837
0
LINE
8
0
6
CONTINUOUS
10
394.3850763
20
-75.6968837
11
379.4528844
21
-74.2722276
0
LINE
8
0
6
CONTINUOUS
10
379.4528844
20
-74.2722276
11
378.0282283
21
-89.2044195
0
LINE
8
0
6
CONTINUOUS
10
356.2457124
20
-116.440945
11
371.232001
21
-117.082158
0
LINE
8
0
6
CONTINUOUS
10
371.232001
20
-117.082158
11
371.873214
21
-102.0958694
0
LINE
8
0
6
CONTINUOUS
10
371.873214
20
-102.0958694
11
356.8869254
21
-101.4546564
0
LINE
8
0
6
CONTINUOUS
10
356.8869254
20
-101.4546564
11
356.2457124
21
-116.440945
0
LINE
8
0
6
CONTINUOUS
10
356.9895195
20
-99.0568503
11
371.9758081
21
-99.6980633
0
LINE
8
0
6
CONTINUOUS
10
371.9758081
20
-99.6980633
11
372.6170211
21
-84.7117747
0
LINE
8
0
6
CONTINUOUS
10
372.6170211
20
-84.7117747
11
357.6307325
21
-84.0705617
0
LINE
8
0
6
CONTINUOUS
10
357.6307325
20
-84.0705617
11
356.9895195
21
-99.0568503
0
LINE
8
0
6
CONTINUOUS
10
357.7333266
20
-81.6727556
11
372.7196152
21
-82.3139686
0
LINE
8
0
6
CONTINUOUS
10
372.7196152
20
-82.3139686
11
373.3608282
21
-67.32768
0
LINE
8
0
6
CONTINUOUS
10
373.3608282
20
-67.32768
11
358.3745396
21
-66.686467
0
LINE
8
0
6
CONTINUOUS
10
358.3745396
20
-66.686467
11
357.7333266
21
-81.6727556
0
LINE
8
0
6
CONTINUOUS
10
336.7632293
20
-123.4345167
11
351.7632236
21
-123.4214268
0
LINE
8
0
6
CONTINUOUS
10
351.7632236
20
-123.4214268
11
351.7501337
21
-108.4214325
0
LINE
8
0
6
CONTINUOUS
10
351.7501337
20
-108.4214325
11
336.7501394
21
-108.4345224
0
LINE
8
0
6
CONTINUOUS
10
336.7501394
20
-108.4345224
11
336.7632293
21
-123.4345167
0
LINE
8
0
6
CONTINUOUS
10
336.748045
20
-106.0345233
11
351.7480393
21
-106.0214334
0
LINE
8
0
6
CONTINUOUS
10
351.7480393
20
-106.0214334
11
351.7349494
21
-91.0214391
0
LINE
8
0
6
CONTINUOUS
10
351.7349494
20
-91.0214391
11
336.7349551
21
-91.034529
0
LINE
8
0
6
CONTINUOUS
10
336.7349551
20
-91.034529
11
336.748045
21
-106.0345233
0
LINE
8
0
6
CONTINUOUS
10
336.7328606
20
-88.6345299
11
351.7328549
21
-88.62144
0
LINE
8
0
6
CONTINUOUS
10
351.7328549
20
-88.62144
11
351.719765
21
-73.6214457
0
LINE
8
0
6
CONTINUOUS
10
351.719765
20
-73.6214457
11
336.7197707
21
-73.6345356
0
LINE
8
0
6
CONTINUOUS
10
336.7197707
20
-73.6345356
11
336.7328606
21
-88.6345299
0
LINE
8
0
6
CONTINUOUS
10
318.3649816
20
-125.4505729
11
333.3649759
21
-125.437483
0
LINE
8
0
6
CONTINUOUS
10
333.3649759
20
-125.437483
11
333.351886
21
-110.4374887
0
LINE
8
0
6
CONTINUOUS
10
333.351886
20
-110.4374887
11
318.3518917
21
-110.4505786
0
LINE
8
0
6
CONTINUOUS
10
318.3518917
20
-110.4505786
11
318.3649816
21
-125.4505729
0
LINE
8
0
6
CONTINUOUS
10
318.3497973
20
-108.0505795
11
333.3497916
21
-108.0374896
0
LINE
8
0
6
CONTINUOUS
10
333.3497916
20
-108.0374896
11
333.3367017
21
-93.0374953
0
LINE
8
0
6
CONTINUOUS
10
333.3367017
20
-93.0374953
11
318.3367074
21
-93.0505852
0
LINE
8
0
6
CONTINUOUS
10
318.3367074
20
-93.0505852
11
318.3497973
21
-108.0505795
0
LINE
8
0
6
CONTINUOUS
10
318.3346129
20
-90.6505861
11
333.3346072
21
-90.6374962
0
LINE
8
0
6
CONTINUOUS
10
333.3346072
20
-90.6374962
11
333.3215173
21
-75.6375019
0
LINE
8
0
6
CONTINUOUS
10
333.3215173
20
-75.6375019
11
318.321523
21
-75.6505918
0
LINE
8
0
6
CONTINUOUS
10
318.321523
20
-75.6505918
11
318.3346129
21
-90.6505861
0
LINE
8
0
6
CONTINUOUS
10
320.3553256
20
-151.4309697
11
334.8408195
21
-147.5360416
0
LINE
8
0
6
CONTINUOUS
10
334.8408195
20
-147.5360416
11
330.9458914
21
-133.0505477
0
LINE
8
0
6
CONTINUOUS
10
330.9458914
20
-133.0505477
11
316.4603975
21
-136.9454758
0
LINE
8
0
6
CONTINUOUS
10
316.4603975
20
-136.9454758
11
320.3553256
21
-151.4309697
0
LINE
8
0
6
CONTINUOUS
10
302.6286963
20
-161.1745935
11
315.6125275
21
-153.6632601
0
LINE
8
0
6
CONTINUOUS
10
315.6125275
20
-153.6632601
11
308.1011941
21
-140.6794289
0
LINE
8
0
6
CONTINUOUS
10
308.1011941
20
-140.6794289
11
295.1173629
21
-148.1907623
0
LINE
8
0
6
CONTINUOUS
10
295.1173629
20
-148.1907623
11
302.6286963
21
-161.1745935
0
CIRCLE
8
0
6
CONTINUOUS
10
408.6228553
20
-84.372406
40
2.2
0
CIRCLE
8
0
6
CONTINUOUS
10
344.2143573
20
-67.427993
40
2.2
0
CIRCLE
8
0
6
CONTINUOUS
10
289.4214031
20
-75.5258119
40
2.2
0
CIRCLE
8
0
6
CONTINUOUS
10
298.8658617
20
-126.4675895
40
2.2
0
CIRCLE
8
0
6
CONTINUOUS
10
388.9907535
20
-147.5058407
40
2.2
0
CIRCLE
8
0
6
CONTINUOUS
10
363.4738219
20
-122.9558841
40
2.2
0
CIRCLE
8
0
6
CONTINUOUS
10
365.8170424
20
-138.3701411
40
2.2
0
CIRCLE
8
0
6
CONTINUOUS
10
365.1330818
20
-154.3555156
40
2.2
0
LINE
8
0
6
CONTINUOUS
10
376.99387
20
-157.8657437
11
378.9920418
21
-157.9512388
0
LINE
8
0
6
CONTINUOUS
10
379.9324876
20
-135.9713489
11
377.9343158
21
-135.8858538
0
LINE
8
0
6
CONTINUOUS
10
377.9343158
20
-135.8858538
11
376.99387
21
-157.8657437
0
LINE
8
0
6
CONTINUOUS
10
294.8459665
20
-103.6710888
11
312.8459596
21
-103.6553808
0
LINE
8
0
6
CONTINUOUS
10
312.8459596
20
-103.6553808
11
312.8171617
21
-70.6553934
0
LINE
8
0
6
CONTINUOUS
10
312.8171617
20
-70.6553934
11
294.8171686
21
-70.6711014
0
LINE
8
0
6
CONTINUOUS
10
294.8171686
20
-70.6711014
11
294.8459665
21
-103.6710888
0
LINE
8
0
6
CONTINUOUS
10
284.3905956
20
-108.9802149
11
284.3958316
21
-114.9802126
0
LINE
8
0
6
CONTINUOUS
10
284.3958316
20
-114.9802126
11
296.395827
21
-114.9697407
0
LINE
8
0
6
CONTINUOUS
10
296.395827
20
-114.9697407
11
296.390591
21
-108.969743
0
LINE
8
0
6
CONTINUOUS
10
296.390591
20
-108.969743
11
284.3905956
21
-108.9802149
0
CIRCLE
8
0
6
CONTINUOUS
10
400.6597932
20
-132.2142249
40
1
0
CIRCLE
8
0
6
CONTINUOUS
10
403.5166443
20
-115.0503558
40
1
0
CIRCLE
8
0
6
CONTINUOUS
10
406.3734955
20
-97.8864868
40
1
0
CIRCLE
8
0
6
CONTINUOUS
10
382.9014502
20
-117.0933369
40
1
0
CIRCLE
8
0
6
CONTINUOUS
10
384.5540513
20
-99.7719943
40
1
0
CIRCLE
8
0
6
CONTINUOUS
10
386.2066523
20
-82.4506516
40
1
0
CIRCLE
8
0
6
CONTINUOUS
10
364.0594632
20
-109.2684072
40
1
0
CIRCLE
8
0
6
CONTINUOUS
10
364.8032703
20
-91.8843125
40
1
0
CIRCLE
8
0
6
CONTINUOUS
10
365.5470774
20
-74.5002178
40
1
0
CIRCLE
8
0
6
CONTINUOUS
10
344.2566815
20
-115.9279746
40
1
0
CIRCLE
8
0
6
CONTINUOUS
10
344.2414972
20
-98.5279812
40
1
0
CIRCLE
8
0
6
CONTINUOUS
10
344.2263128
20
-81.1279878
40
1
0
CIRCLE
8
0
6
CONTINUOUS
10
325.8584338
20
-117.9440308
40
1
0
CIRCLE
8
0
6
CONTINUOUS
10
325.8432495
20
-100.5440374
40
1
0
CIRCLE
8
0
6
CONTINUOUS
10
325.8280651
20
-83.144044
40
1
0
CIRCLE
8
0
6
CONTINUOUS
10
325.6506085
20
-142.2407587
40
1
0
CIRCLE
8
0
6
CONTINUOUS
10
305.3649452
20
-150.9270112
40
1
0
LINE
8
0
6
CONTINUOUS
10
390.3863417
20
-139.121192
11
408.1420683
21
-142.0765552
0
LINE
8
0
6
CONTINUOUS
10
408.1420683
20
-142.0765552
11
410.9332447
21
-125.3072578
0
LINE
8
0
6
CONTINUOUS
10
410.9332447
20
-125.3072578
11
393.1775181
21
-122.3518946
0
LINE
8
0
6
CONTINUOUS
10
393.1775181
20
-122.3518946
11
390.3863417
21
-139.121192
0
LINE
8
0
6
CONTINUOUS
10
393.2431928
20
-121.9573229
11
410.9989194
21
-124.9126861
0
LINE
8
0
6
CONTINUOUS
10
410.9989194
20
-124.9126861
11
413.7900958
21
-108.1433887
0
LINE
8
0
6
CONTINUOUS
10
413.7900958
20
-108.1433887
11
396.0343692
21
-105.1880255
0
LINE
8
0
6
CONTINUOUS
10
396.0343692
20
-105.1880255
11
393.2431928
21
-121.9573229
0
LINE
8
0
6
CONTINUOUS
10
396.100044
20
-104.7934539
11
413.8557706
21
-107.7488171
0
LINE
8
0
6
CONTINUOUS
10
413.8557706
20
-107.7488171
11
416.646947
21
-90.9795197
0
LINE
8
0
6
CONTINUOUS
10
416.646947
20
-90.9795197
11
398.8912204
21
-88.0241565
0
LINE
8
0
6
CONTINUOUS
10
398.8912204
20
-88.0241565
11
396.100044
21
-104.7934539
0
LINE
8
0
6
CONTINUOUS
10
373.13483
20
-124.7001187
11
391.0534603
21
-126.4097059
0
LINE
8
0
6
CONTINUOUS
10
391.0534603
20
-126.4097059
11
392.6680704
21
-109.4865551
0
LINE
8
0
6
CONTINUOUS
10
392.6680704
20
-109.4865551
11
374.7494401
21
-107.7769679
0
LINE
8
0
6
CONTINUOUS
10
374.7494401
20
-107.7769679
11
373.13483
21
-124.7001187
0
LINE
8
0
6
CONTINUOUS
10
374.7874311
20
-107.3787761
11
392.7060614
21
-109.0883633
0
LINE
8
0
6
CONTINUOUS
10
392.7060614
20
-109.0883633
11
394.3206715
21
-92.1652125
0
LINE
8
0
6
CONTINUOUS
10
394.3206715
20
-92.1652125
11
376.4020412
21
-90.4556253
0
LINE
8
0
6
CONTINUOUS
10
376.4020412
20
-90.4556253
11
374.7874311
21
-107.3787761
0
LINE
8
0
6
CONTINUOUS
10
376.4400321
20
-90.0574334
11
394.3586624
21
-91.7670206
0
LINE
8
0
6
CONTINUOUS
10
394.3586624
20
-91.7670206
11
395.9732725
21
-74.8438698
0
LINE
8
0
6
CONTINUOUS
10
395.9732725
20
-74.8438698
11
378.0546422
21
-73.1342826
0
LINE
8
0
6
CONTINUOUS
10
378.0546422
20
-73.1342826
11
376.4400321
21
-90.0574334
0
LINE
8
0
6
CONTINUOUS
10
354.704336
20
-117.3759096
11
372.6878823
21
-118.1453652
0
LINE
8
0
6
CONTINUOUS
10
372.6878823
20
-118.1453652
11
373.4145904
21
-101.1609048
0
LINE
8
0
6
CONTINUOUS
10
373.4145904
20
-101.1609048
11
355.4310441
21
-100.3914492
0
LINE
8
0
6
CONTINUOUS
10
355.4310441
20
-100.3914492
11
354.704336
21
-117.3759096
0
LINE
8
0
6
CONTINUOUS
10
355.4481431
20
-99.9918149
11
373.4316894
21
-100.7612705
0
LINE
8
0
6
CONTINUOUS
10
373.4316894
20
-100.7612705
11
374.1583975
21
-83.7768101
0
LINE
8
0
6
CONTINUOUS
10
374.1583975
20
-83.7768101
11
356.1748512
21
-83.0073545
0
LINE
8
0
6
CONTINUOUS
10
356.1748512
20
-83.0073545
11
355.4481431
21
-99.9918149
0
LINE
8
0
6
CONTINUOUS
10
356.1919502
20
-82.6077202
11
374.1754965
21
-83.3771758
0
LINE
8
0
6
CONTINUOUS
10
374.1754965
20
-83.3771758
11
374.9022046
21
-66.3927154
0
LINE
8
0
6
CONTINUOUS
10
374.9022046
20
-66.3927154
11
356.9186583
21
-65.6232598
0
LINE
8
0
6
CONTINUOUS
10
356.9186583
20
-65.6232598
11
356.1919502
21
-82.6077202
0
LINE
8
0
6
CONTINUOUS
10
335.2641026
20
-124.4358253
11
353.2640957
21
-124.4201174
0
LINE
8
0
6
CONTINUOUS
10
353.2640957
20
-124.4201174
11
353.2492604
21
-107.4201239
0
LINE
8
0
6
CONTINUOUS
10
353.2492604
20
-107.4201239
11
335.2492673
21
-107.4358318
0
LINE
8
0
6
CONTINUOUS
10
335.2492673
20
-107.4358318
11
335.2641026
21
-124.4358253
0
LINE
8
0
6
CONTINUOUS
10
335.2489183
20
-107.0358319
11
353.2489114
21
-107.020124
0
LINE
8
0
6
CONTINUOUS
10
353.2489114
20
-107.020124
11
353.2340761
21
-90.0201305
0
LINE
8
0
6
CONTINUOUS
10
353.2340761
20
-90.0201305
11
335.234083
21
-90.0358384
0
LINE
8
0
6
CONTINUOUS
10
335.234083
20
-90.0358384
11
335.2489183
21
-107.0358319
0
LINE
8
0
6
CONTINUOUS
10
335.2337339
20
-89.6358385
11
353.233727
21
-89.6201306
0
LINE
8
0
6
CONTINUOUS
10
353.233727
20
-89.6201306
11
353.2188917
21
-72.6201371
0
LINE
8
0
6
CONTINUOUS
10
353.2188917
20
-72.6201371
11
335.2188986
21
-72.635845
0
LINE
8
0
6
CONTINUOUS
10
335.2188986
20
-72.635845
11
335.2337339
21
-89.6358385
0
LINE
8
0
6
CONTINUOUS
10
316.8658549
20
-126.4518815
11
334.865848
21
-126.4361736
0
LINE
8
0
6
CONTINUOUS
10
334.865848
20
-126.4361736
11
334.8510127
21
-109.4361801
0
LINE
8
0
6
CONTINUOUS
10
334.8510127
20
-109.4361801
11
316.8510196
21
-109.451888
0
LINE
8
0
6
CONTINUOUS
10
316.8510196
20
-109.451888
11
316.8658549
21
-126.4518815
0
LINE
8
0
6
CONTINUOUS
10
316.8506706
20
-109.0518881
11
334.8506637
21
-109.0361802
0
LINE
8
0
6
CONTINUOUS
10
334.8506637
20
-109.0361802
11
334.8358284
21
-92.0361867
0
LINE
8
0
6
CONTINUOUS
10
334.8358284
20
-92.0361867
11
316.8358353
21
-92.0518946
0
LINE
8
0
6
CONTINUOUS
10
316.8358353
20
-92.0518946
11
316.8506706
21
-109.0518881
0
LINE
8
0
6
CONTINUOUS
10
316.8354862
20
-91.6518947
11
334.8354793
21
-91.6361868
0
LINE
8
0
6
CONTINUOUS
10
334.8354793
20
-91.6361868
11
334.820644
21
-74.6361933
0
LINE
8
0
6
CONTINUOUS
10
334.820644
20
-74.6361933
11
316.8206509
21
-74.6519012
0
LINE
8
0
6
CONTINUOUS
10
316.8206509
20
-74.6519012
11
316.8354862
21
-91.6518947
0
LINE
8
0
6
CONTINUOUS
10
319.1664381
20
-152.7861622
11
336.5490308
21
-148.1122484
0
LINE
8
0
6
CONTINUOUS
10
336.5490308
20
-148.1122484
11
332.1347789
21
-131.6953552
0
LINE
8
0
6
CONTINUOUS
10
332.1347789
20
-131.6953552
11
314.7521862
21
-136.369269
0
LINE
8
0
6
CONTINUOUS
10
314.7521862
20
-136.369269
11
319.1664381
21
-152.7861622
0
LINE
8
0
6
CONTINUOUS
10
301.8310688
20
-162.7913155
11
317.4116661
21
-153.7777155
0
LINE
8
0
6
CONTINUOUS
10
317.4116661
20
-153.7777155
11
308.8988216
21
-139.0627069
0
LINE
8
0
6
CONTINUOUS
10
308.8988216
20
-139.0627069
11
293.3182243
21
-148.0763069
0
LINE
8
0
6
CONTINUOUS
10
293.3182243
20
-148.0763069
11
301.8310688
21
-162.7913155
0
ENDSEC
0
EOF