0
SECTION
2
HEADER
9
$INSUNITS
70
4
0
ENDSEC
0
SECTION
2
TABLES
0
TABLE
2
LTYPE
0
LTYPE
72
65
70
0
2
CONTINUOUS
3
______
73
0
40
0
0
LTYPE
72
65
70
0
2
DASHED
3
_ _ _ 
73
2
40
7.5
49
5
49
-2.5
0
LTYPE
72
65
70
0
2
DOTTED
3
. . . 
73
2
40
1.5
49
0.5
49
-1
0
ENDTAB
0
TABLE
2
LAYER
0
ENDTAB
0
ENDSEC
0
SECTION
2
ENTITIES
0
LINE
8
0
6
CONTINUOUS
10
161.7923274
20
-145.9904013
11
152.1852985
21
-83.114476
0
LINE
8
0
6
CONTINUOUS
10
153.8339801
20
-80.8395365
11
172.4491375
21
-77.7411247
0
LINE
8
0
6
CONTINUOUS
10
174.1202268
20
-75.8146124
11
174.1908361
21
-72.7683881
0
LINE
8
0
6
CONTINUOUS
10
175.9849384
20
-70.8253055
11
194.1664328
21
-68.9485033
0
LINE
8
0
6
CONTINUOUS
10
195.9572245
20
-66.8350745
11
195.8451109
21
-65.0302714
0
LINE
8
0
6
CONTINUOUS
10
197.7557682
20
-62.9080995
11
221.2553326
21
-61.9026319
0
LINE
8
0
6
CONTINUOUS
10
221.2553326
20
-61.9026319
11
221.5203362
21
-61.9201411
0
LINE
8
0
6
CONTINUOUS
10
221.5203362
20
-61.9201411
11
241.1294979
21
-61.9372534
0
LINE
8
0
6
CONTINUOUS
10
243.1277386
20
-63.9298078
11
243.1453208
21
-68.6532051
0
LINE
8
0
6
CONTINUOUS
10
245.1435615
20
-70.6457595
11
288.3127144
21
-70.6834318
0
LINE
8
0
6
CONTINUOUS
10
290.3109682
20
-72.6851764
11
290.2606874
21
-130.3026709
0
LINE
8
0
6
CONTINUOUS
10
290.2308577
20
-130.6450651
11
287.496147
21
-146.301046
0
LINE
8
0
6
CONTINUOUS
10
287.2571549
20
-146.9584177
11
275.6672709
21
-166.9922903
0
LINE
8
0
6
CONTINUOUS
10
272.9345822
20
-167.7219565
11
255.4012699
21
-157.5786827
0
LINE
8
0
6
CONTINUOUS
10
254.9555657
20
-157.3886421
11
237.3350415
21
-152.2910371
0
LINE
8
0
6
CONTINUOUS
10
236.8090123
20
-152.2124768
11
215.3137856
21
-151.8924016
0
LINE
8
0
6
CONTINUOUS
10
213.3435642
20
-149.8908779
11
213.3481973
21
-144.5818025
0
LINE
8
0
6
CONTINUOUS
10
211.2823623
20
-142.581141
11
190.6397498
21
-143.2610204
0
LINE
8
0
6
CONTINUOUS
10
190.377212
20
-143.287078
11
164.0977561
21
-147.6611788
0
ARC
8
0
6
CONTINUOUS
10
154.1623536
20
-82.812395
40
2
50
99.449997
51
188.6872296
0
ARC
8
0
6
CONTINUOUS
10
172.1207639
20
-75.7682662
40
2
50
279.449997
51
358.6721604
0
ARC
8
0
6
CONTINUOUS
10
176.190299
20
-72.8147343
40
2
50
95.8935352
51
178.6721604
0
ARC
8
0
6
CONTINUOUS
10
193.9610722
20
-66.9590745
40
2
50
275.8935352
51
3.5546183
0
ARC
8
0
6
CONTINUOUS
10
197.8412632
20
-64.9062713
40
2
50
92.4499979
51
183.5546183
0
ARC
8
0
6
CONTINUOUS
10
241.1277525
20
-63.9372526
40
2
50
0.2132783
51
89.949998
0
ARC
8
0
6
CONTINUOUS
10
245.1453069
20
-68.6457603
40
2
50
180.2132783
51
269.949998
0
ARC
8
0
6
CONTINUOUS
10
288.310969
20
-72.683431
40
2
50
359.949998
51
89.949998
0
ARC
8
0
6
CONTINUOUS
10
288.2606882
20
-130.3009255
40
2
50
350.0918169
51
359.949998
0
ARC
8
0
6
CONTINUOUS
10
285.5259775
20
-145.9569065
40
2
50
329.9499968
51
350.0918169
0
ARC
8
0
6
CONTINUOUS
10
273.9360934
20
-165.9907791
40
2
50
239.9499968
51
329.9499968
0
ARC
8
0
6
CONTINUOUS
10
254.3997587
20
-159.3098601
40
2
50
59.9499968
51
73.8648812
0
ARC
8
0
6
CONTINUOUS
10
236.7792345
20
-154.2122551
40
2
50
73.8648812
51
89.1468974
0
ARC
8
0
6
CONTINUOUS
10
215.3435634
20
-149.8926233
40
2
50
179.949998
51
269.1468974
0
ARC
8
0
6
CONTINUOUS
10
211.3481981
20
-144.5800571
40
2
50
359.949998
51
91.8863974
0
ARC
8
0
6
CONTINUOUS
10
190.7055856
20
-145.2599365
40
2
50
91.8863974
51
99.449997
0
ARC
8
0
6
CONTINUOUS
10
163.7693825
20
-145.6883203
40
2
50
188.6872296
51
279.449997
0
LINE
8
0
6
CONTINUOUS
10
167.9032791
20
-140.8438457
11
182.699718
21
-138.381043
0
LINE
8
0
6
CONTINUOUS
10
182.699718
20
-138.381043
11
180.2369153
21
-123.5846041
0
LINE
8
0
6
CONTINUOUS
10
180.2369153
20
-123.5846041
11
165.4404764
21
-126.0474068
0
LINE
8
0
6
CONTINUOUS
10
165.4404764
20
-126.0474068
11
167.9032791
21
-140.8438457
0
LINE
8
0
6
CONTINUOUS
10
165.046428
20
-123.6799766
11
179.8428669
21
-121.2171739
0
LINE
8
0
6
CONTINUOUS
10
179.8428669
20
-121.2171739
11
177.3800642
21
-106.420735
0
LINE
8
0
6
CONTINUOUS
10
177.3800642
20
-106.420735
11
162.5836253
21
-108.8835377
0
LINE
8
0
6
CONTINUOUS
10
162.5836253
20
-108.8835377
11
165.046428
21
-123.6799766
0
LINE
8
0
6
CONTINUOUS
10
162.1895768
20
-106.5161076
11
176.9860157
21
-104.0533049
0
LINE
8
0
6
CONTINUOUS
10
176.9860157
20
-104.0533049
11
174.523213
21
-89.256866
0
LINE
8
0
6
CONTINUOUS
10
174.523213
20
-89.256866
11
159.7267741
21
-91.7196687
0
LINE
8
0
6
CONTINUOUS
10
159.7267741
20
-91.7196687
11
162.1895768
21
-106.5161076
0
LINE
8
0
6
CONTINUOUS
10
185.0746723
20
-125.2717609
11
200.0068642
21
-123.8471048
0
LINE
8
0
6
CONTINUOUS
10
200.0068642
20
-123.8471048
11
198.5822081
21
-108.9149129
0
LINE
8
0
6
CONTINUOUS
10
198.5822081
20
-108.9149129
11
183.6500162
21
-110.339569
0
LINE
8
0
6
CONTINUOUS
10
183.6500162
20
-110.339569
11
185.0746723
21
-125.2717609
0
LINE
8
0
6
CONTINUOUS
10
183.4220712
20
-107.9504183
11
198.3542631
21
-106.5257622
0
LINE
8
0
6
CONTINUOUS
10
198.3542631
20
-106.5257622
11
196.929607
21
-91.5935703
0
LINE
8
0
6
CONTINUOUS
10
196.929607
20
-91.5935703
11
181.9974151
21
-93.0182264
0
LINE
8
0
6
CONTINUOUS
10
181.9974151
20
-93.0182264
11
183.4220712
21
-107.9504183
0
LINE
8
0
6
CONTINUOUS
10
181.7694702
20
-90.6290756
11
196.7016621
21
-89.2044195
0
LINE
8
0
6
CONTINUOUS
10
196.7016621
20
-89.2044195
11
195.277006
21
-74.2722276
0
LINE
8
0
6
CONTINUOUS
10
195.277006
20
-74.2722276
11
180.3448141
21
-75.6968837
0
LINE
8
0
6
CONTINUOUS
10
180.3448141
20
-75.6968837
11
181.7694702
21
-90.6290756
0
LINE
8
0
6
CONTINUOUS
10
203.4978894
20
-117.082158
11
218.484178
21
-116.440945
0
LINE
8
0
6
CONTINUOUS
10
218.484178
20
-116.440945
11
217.842965
21
-101.4546564
0
LINE
8
0
6
CONTINUOUS
10
217.842965
20
-101.4546564
11
202.8566764
21
-102.0958694
0
LINE
8
0
6
CONTINUOUS
10
202.8566764
20
-102.0958694
11
203.4978894
21
-117.082158
0
LINE
8
0
6
CONTINUOUS
10
202.7540823
20
-99.6980633
11
217.7403709
21
-99.0568503
0
LINE
8
0
6
CONTINUOUS
10
217.7403709
20
-99.0568503
11
217.0991579
21
-84.0705617
0
LINE
8
0
6
CONTINUOUS
10
217.0991579
20
-84.0705617
11
202.1128693
21
-84.7117747
0
LINE
8
0
6
CONTINUOUS
10
202.1128693
20
-84.7117747
11
202.7540823
21
-99.6980633
0
LINE
8
0
6
CONTINUOUS
10
202.0102752
20
-82.3139686
11
216.9965638
21
-81.6727556
0
LINE
8
0
6
CONTINUOUS
10
216.9965638
20
-81.6727556
11
216.3553508
21
-66.686467
0
LINE
8
0
6
CONTINUOUS
10
216.3553508
20
-66.686467
11
201.3690622
21
-67.32768
0
LINE
8
0
6
CONTINUOUS
10
201.3690622
20
-67.32768
11
202.0102752
21
-82.3139686
0
LINE
8
0
6
CONTINUOUS
10
222.9666668
20
-123.4214268
11
237.9666611
21
-123.4345167
0
LINE
8
0
6
CONTINUOUS
10
237.9666611
20
-123.4345167
11
237.979751
21
-108.4345224
0
LINE
8
0
6
CONTINUOUS
10
237.979751
20
-108.4345224
11
222.9797567
21
-108.4214325
0
LINE
8
0
6
CONTINUOUS
10
222.9797567
20
-108.4214325
11
222.9666668
21
-123.4214268
0
LINE
8
0
6
CONTINUOUS
10
222.9818511
20
-106.0214334
11
237.9818454
21
-106.0345233
0
LINE
8
0
6
CONTINUOUS
10
237.9818454
20
-106.0345233
11
237.9949353
21
-91.034529
0
LINE
8
0
6
CONTINUOUS
10
237.9949353
20
-91.034529
11
222.994941
21
-91.0214391
0
LINE
8
0
6
CONTINUOUS
10
222.994941
20
-91.0214391
11
222.9818511
21
-106.0214334
0
LINE
8
0
6
CONTINUOUS
10
222.9970355
20
-88.62144
11
237.9970298
21
-88.6345299
0
LINE
8
0
6
CONTINUOUS
10
237.9970298
20
-88.6345299
11
238.0101197
21
-73.6345356
0
LINE
8
0
6
CONTINUOUS
10
238.0101197
20
-73.6345356
11
223.0101254
21
-73.6214457
0
LINE
8
0
6
CONTINUOUS
10
223.0101254
20
-73.6214457
11
222.9970355
21
-88.62144
0
LINE
8
0
6
CONTINUOUS
10
241.3649145
20
-125.437483
11
256.3649088
21
-125.4505729
0
LINE
8
0
6
CONTINUOUS
10
256.3649088
20
-125.4505729
11
256.3779987
21
-110.4505786
0
LINE
8
0
6
CONTINUOUS
10
256.3779987
20
-110.4505786
11
241.3780044
21
-110.4374887
0
LINE
8
0
6
CONTINUOUS
10
241.3780044
20
-110.4374887
11
241.3649145
21
-125.437483
0
LINE
8
0
6
CONTINUOUS
10
241.3800988
20
-108.0374896
11
256.3800931
21
-108.0505795
0
LINE
8
0
6
CONTINUOUS
10
256.3800931
20
-108.0505795
11
256.393183
21
-93.0505852
0
LINE
8
0
6
CONTINUOUS
10
256.393183
20
-93.0505852
11
241.3931887
21
-93.0374953
0
LINE
8
0
6
CONTINUOUS
10
241.3931887
20
-93.0374953
11
241.3800988
21
-108.0374896
0
LINE
8
0
6
CONTINUOUS
10
241.3952832
20
-90.6374962
11
256.3952775
21
-90.6505861
0
LINE
8
0
6
CONTINUOUS
10
256.3952775
20
-90.6505861
11
256.4083674
21
-75.6505918
0
LINE
8
0
6
CONTINUOUS
10
256.4083674
20
-75.6505918
11
241.4083731
21
-75.6375019
0
LINE
8
0
6
CONTINUOUS
10
241.4083731
20
-75.6375019
11
241.3952832
21
-90.6374962
0
LINE
8
0
6
CONTINUOUS
10
219.3464224
20
-146.6182763
11
234.3464167
21
-146.6313662
0
LINE
8
0
6
CONTINUOUS
10
234.3464167
20
-146.6313662
11
234.3595066
21
-131.6313719
0
LINE
8
0
6
CONTINUOUS
10
234.3595066
20
-131.6313719
11
219.3595123
21
-131.618282
0
LINE
8
0
6
CONTINUOUS
10
219.3595123
20
-131.618282
11
219.3464224
21
-146.6182763
0
LINE
8
0
6
CONTINUOUS
10
239.8890709
20
-147.5360416
11
254.3745648
21
-151.4309697
0
LINE
8
0
6
CONTINUOUS
10
254.3745648
20
-151.4309697
11
258.2694929
21
-136.9454758
0
LINE
8
0
6
CONTINUOUS
10
258.2694929
20
-136.9454758
11
243.783999
21
-133.0505477
0
LINE
8
0
6
CONTINUOUS
10
243.783999
20
-133.0505477
11
239.8890709
21
-147.5360416
0
LINE
8
0
6
CONTINUOUS
10
259.1173629
20
-153.6632601
11
272.1011941
21
-161.1745935
0
LINE
8
0
6
CONTINUOUS
10
272.1011941
20
-161.1745935
11
279.6125275
21
-148.1907623
0
LINE
8
0
6
CONTINUOUS
10
279.6125275
20
-148.1907623
11
266.6286963
21
-140.6794289
0
LINE
8
0
6
CONTINUOUS
10
266.6286963
20
-140.6794289
11
259.1173629
21
-153.6632601
0
CIRCLE
8
0
6
CONTINUOUS
10
166.1070351
20
-84.372406
40
2.2
0
CIRCLE
8
0
6
CONTINUOUS
10
230.5155331
20
-67.427993
40
2.2
0
CIRCLE
8
0
6
CONTINUOUS
10
285.3084873
20
-75.5258119
40
2.2
0
CIRCLE
8
0
6
CONTINUOUS
10
275.8640287
20
-126.4675895
40
2.2
0
CIRCLE
8
0
6
CONTINUOUS
10
211.2560685
20
-122.9558841
40
2.2
0
LINE
8
0
6
CONTINUOUS
10
261.8839308
20
-103.6553808
11
279.8839239
21
-103.6710888
0
LINE
8
0
6
CONTINUOUS
10
279.8839239
20
-103.6710888
11
279.9127218
21
-70.6711014
0
LINE
8
0
6
CONTINUOUS
10
279.9127218
20
-70.6711014
11
261.9127287
21
-70.6553934
0
LINE
8
0
6
CONTINUOUS
10
261.9127287
20
-70.6553934
11
261.8839308
21
-103.6553808
0
LINE
8
0
6
CONTINUOUS
10
290.3340588
20
-114.9802126
11
290.3392948
21
-108.9802149
0
LINE
8
0
6
CONTINUOUS
10
290.3392948
20
-108.9802149
11
278.3392994
21
-108.969743
0
LINE
8
0
6
CONTINUOUS
10
278.3392994
20
-108.969743
11
278.3340634
21
-114.9697407
0
LINE
8
0
6
CONTINUOUS
10
278.3340634
20
-114.9697407
11
290.3340588
21
-114.9802126
0
CIRCLE
8
0
6
CONTINUOUS
10
174.0700972
20
-132.2142249
40
1
0
CIRCLE
8
0
6
CONTINUOUS
10
171.2132461
20
-115.0503558
40
1
0
CIRCLE
8
0
6
CONTINUOUS
10
168.3563949
20
-97.8864868
40
1
0
CIRCLE
8
0
6
CONTINUOUS
10
191.8284402
20
-117.0933369
40
1
0
CIRCLE
8
0
6
CONTINUOUS
10
190.1758391
20
-99.7719943
40
1
0
CIRCLE
8
0
6
CONTINUOUS
10
188.5232381
20
-82.4506516
40
1
0
CIRCLE
8
0
6
CONTINUOUS
10
210.6704272
20
-109.2684072
40
1
0
CIRCLE
8
0
6
CONTINUOUS
10
209.9266201
20
-91.8843125
40
1
0
CIRCLE
8
0
6
CONTINUOUS
10
209.182813
20
-74.5002178
40
1
0
CIRCLE
8
0
6
CONTINUOUS
10
230.4732089
20
-115.9279746
40
1
0
CIRCLE
8
0
6
CONTINUOUS
10
230.4883932
20
-98.5279812
40
1
0
CIRCLE
8
0
6
CONTINUOUS
10
230.5035776
20
-81.1279878
40
1
0
CIRCLE
8
0
6
CONTINUOUS
10
248.8714566
20
-117.9440308
40
1
0
CIRCLE
8
0
6
CONTINUOUS
10
248.8866409
20
-100.5440374
40
1
0
CIRCLE
8
0
6
CONTINUOUS
10
248.9018253
20
-83.144044
40
1
0
CIRCLE
8
0
6
CONTINUOUS
10
226.8529645
20
-139.1248241
40
1
0
CIRCLE
8
0
6
CONTINUOUS
10
249.0792819
20
-142.2407587
40
1
0
CIRCLE
8
0
6
CONTINUOUS
10
269.3649452
20
-150.9270112
40
1
0
LINE
8
0
6
CONTINUOUS
10
166.5878221
20
-142.0765552
11
184.3435487
21
-139.121192
0
LINE
8
0
6
CONTINUOUS
10
184.3435487
20
-139.121192
11
181.5523723
21
-122.3518946
0
LINE
8
0
6
CONTINUOUS
10
181.5523723
20
-122.3518946
11
163.7966457
21
-125.3072578
0
LINE
8
0
6
CONTINUOUS
10
163.7966457
20
-125.3072578
11
166.5878221
21
-142.0765552
0
LINE
8
0
6
CONTINUOUS
10
163.730971
20
-124.9126861
11
181.4866976
21
-121.9573229
0
LINE
8
0
6
CONTINUOUS
10
181.4866976
20
-121.9573229
11
178.6955212
21
-105.1880255
0
LINE
8
0
6
CONTINUOUS
10
178.6955212
20
-105.1880255
11
160.9397946
21
-108.1433887
0
LINE
8
0
6
CONTINUOUS
10
160.9397946
20
-108.1433887
11
163.730971
21
-124.9126861
0
LINE
8
0
6
CONTINUOUS
10
160.8741198
20
-107.7488171
11
178.6298464
21
-104.7934539
0
LINE
8
0
6
CONTINUOUS
10
178.6298464
20
-104.7934539
11
175.83867
21
-88.0241565
0
LINE
8
0
6
CONTINUOUS
10
175.83867
20
-88.0241565
11
158.0829434
21
-90.9795197
0
LINE
8
0
6
CONTINUOUS
10
158.0829434
20
-90.9795197
11
160.8741198
21
-107.7488171
0
LINE
8
0
6
CONTINUOUS
10
183.6764301
20
-126.4097059
11
201.5950604
21
-124.7001187
0
LINE
8
0
6
CONTINUOUS
10
201.5950604
20
-124.7001187
11
199.9804503
21
-107.7769679
0
LINE
8
0
6
CONTINUOUS
10
199.9804503
20
-107.7769679
11
182.06182
21
-109.4865551
0
LINE
8
0
6
CONTINUOUS
10
182.06182
20
-109.4865551
11
183.6764301
21
-126.4097059
0
LINE
8
0
6
CONTINUOUS
10
182.023829
20
-109.0883633
11
199.9424593
21
-107.3787761
0
LINE
8
0
6
CONTINUOUS
10
199.9424593
20
-107.3787761
11
198.3278492
21
-90.4556253
0
LINE
8
0
6
CONTINUOUS
10
198.3278492
20
-90.4556253
11
180.4092189
21
-92.1652125
0
LINE
8
0
6
CONTINUOUS
10
180.4092189
20
-92.1652125
11
182.023829
21
-109.0883633
0
LINE
8
0
6
CONTINUOUS
10
180.371228
20
-91.7670206
11
198.2898583
21
-90.0574334
0
LINE
8
0
6
CONTINUOUS
10
198.2898583
20
-90.0574334
11
196.6752482
21
-73.1342826
0
LINE
8
0
6
CONTINUOUS
10
196.6752482
20
-73.1342826
11
178.7566179
21
-74.8438698
0
LINE
8
0
6
CONTINUOUS
10
178.7566179
20
-74.8438698
11
180.371228
21
-91.7670206
0
LINE
8
0
6
CONTINUOUS
10
202.0420081
20
-118.1453652
11
220.0255544
21
-117.3759096
0
LINE
8
0
6
CONTINUOUS
10
220.0255544
20
-117.3759096
11
219.2988463
21
-100.3914492
0
LINE
8
0
6
CONTINUOUS
10
219.2988463
20
-100.3914492
11
201.3153
21
-101.1609048
0
LINE
8
0
6
CONTINUOUS
10
201.3153
20
-101.1609048
11
202.0420081
21
-118.1453652
0
LINE
8
0
6
CONTINUOUS
10
201.298201
20
-100.7612705
11
219.2817473
21
-99.9918149
0
LINE
8
0
6
CONTINUOUS
10
219.2817473
20
-99.9918149
11
218.5550392
21
-83.0073545
0
LINE
8
0
6
CONTINUOUS
10
218.5550392
20
-83.0073545
11
200.5714929
21
-83.7768101
0
LINE
8
0
6
CONTINUOUS
10
200.5714929
20
-83.7768101
11
201.298201
21
-100.7612705
0
LINE
8
0
6
CONTINUOUS
10
200.5543939
20
-83.3771758
11
218.5379402
21
-82.6077202
0
LINE
8
0
6
CONTINUOUS
10
218.5379402
20
-82.6077202
11
217.8112321
21
-65.6232598
0
LINE
8
0
6
CONTINUOUS
10
217.8112321
20
-65.6232598
11
199.8276858
21
-66.3927154
0
LINE
8
0
6
CONTINUOUS
10
199.8276858
20
-66.3927154
11
200.5543939
21
-83.3771758
0
LINE
8
0
6
CONTINUOUS
10
221.4657947
20
-124.4201174
11
239.4657878
21
-124.4358253
0
LINE
8
0
6
CONTINUOUS
10
239.4657878
20
-124.4358253
11
239.4806231
21
-107.4358318
0
LINE
8
0
6
CONTINUOUS
10
239.4806231
20
-107.4358318
11
221.48063
21
-107.4201239
0
LINE
8
0
6
CONTINUOUS
10
221.48063
20
-107.4201239
11
221.4657947
21
-124.4201174
0
LINE
8
0
6
CONTINUOUS
10
221.480979
20
-107.020124
11
239.4809721
21
-107.0358319
0
LINE
8
0
6
CONTINUOUS
10
239.4809721
20
-107.0358319
11
239.4958074
21
-90.0358384
0
LINE
8
0
6
CONTINUOUS
10
239.4958074
20
-90.0358384
11
221.4958143
21
-90.0201305
0
LINE
8
0
6
CONTINUOUS
10
221.4958143
20
-90.0201305
11
221.480979
21
-107.020124
0
LINE
8
0
6
CONTINUOUS
10
221.4961634
20
-89.6201306
11
239.4961565
21
-89.6358385
0
LINE
8
0
6
CONTINUOUS
10
239.4961565
20
-89.6358385
11
239.5109918
21
-72.635845
0
LINE
8
0
6
CONTINUOUS
10
239.5109918
20
-72.635845
11
221.5109987
21
-72.6201371
0
LINE
8
0
6
CONTINUOUS
10
221.5109987
20
-72.6201371
11
221.4961634
21
-89.6201306
0
LINE
8
0
6
CONTINUOUS
10
239.8640424
20
-126.4361736
11
257.8640355
21
-126.4518815
0
LINE
8
0
6
CONTINUOUS
10
257.8640355
20
-126.4518815
11
257.8788708
21
-109.451888
0
LINE
8
0
6
CONTINUOUS
10
257.8788708
20
-109.451888
11
239.8788777
21
-109.4361801
0
LINE
8
0
6
CONTINUOUS
10
239.8788777
20
-109.4361801
11
239.8640424
21
-126.4361736
0
LINE
8
0
6
CONTINUOUS
10
239.8792267
20
-109.0361802
11
257.8792198
21
-109.0518881
0
LINE
8
0
6
CONTINUOUS
10
257.8792198
20
-109.0518881
11
257.8940551
21
-92.0518946
0
LINE
8
0
6
CONTINUOUS
10
257.8940551
20
-92.0518946
11
239.894062
21
-92.0361867
0
LINE
8
0
6
CONTINUOUS
10
239.894062
20
-92.0361867
11
239.8792267
21
-109.0361802
0
LINE
8
0
6
CONTINUOUS
10
239.8944111
20
-91.6361868
11
257.8944042
21
-91.6518947
0
LINE
8
0
6
CONTINUOUS
10
257.8944042
20
-91.6518947
11
257.9092395
21
-74.6519012
0
LINE
8
0
6
CONTINUOUS
10
257.9092395
20
-74.6519012
11
239.9092464
21
-74.6361933
0
LINE
8
0
6
CONTINUOUS
10
239.9092464
20
-74.6361933
11
239.8944111
21
-91.6361868
0
LINE
8
0
6
CONTINUOUS
10
217.8455503
20
-147.6169669
11
235.8455434
21
-147.6326748
0
LINE
8
0
6
CONTINUOUS
10
235.8455434
20
-147.6326748
11
235.8603787
21
-130.6326813
0
LINE
8
0
6
CONTINUOUS
10
235.8603787
20
-130.6326813
11
217.8603856
21
-130.6169734
0
LINE
8
0
6
CONTINUOUS
10
217.8603856
20
-130.6169734
11
217.8455503
21
-147.6169669
0
LINE
8
0
6
CONTINUOUS
10
238.1808596
20
-148.1122484
11
255.5634523
21
-152.7861622
0
LINE
8
0
6
CONTINUOUS
10
255.5634523
20
-152.7861622
11
259.9777042
21
-136.369269
0
LINE
8
0
6
CONTINUOUS
10
259.9777042
20
-136.369269
11
242.5951115
21
-131.6953552
0
LINE
8
0
6
CONTINUOUS
10
242.5951115
20
-131.6953552
11
238.1808596
21
-148.1122484
0
LINE
8
0
6
CONTINUOUS
10
257.3182243
20
-153.7777155
11
272.8988216
21
-162.7913155
0
LINE
8
0
6
CONTINUOUS
10
272.8988216
20
-162.7913155
11
281.4116661
21
-148.0763069
0
LINE
8
0
6
CONTINUOUS
10
281.4116661
20
-148.0763069
11
265.8310688
21
-139.0627069
0
LINE
8
0
6
CONTINUOUS
10
265.8310688
20
-139.0627069
11
257.3182243
21
-153.7777155
0
LINE
8
0
6
CONTINUOUS
10
432.937563
20
-145.9904013
11
442.5445919
21
-83.114476
0
LINE
8
0
6
CONTINUOUS
10
440.8959103
20
-80.8395365
11
422.2807529
21
-77.7411247
0
LINE
8
0
6
CONTINUOUS
10
420.6096636
20
-75.8146124
11
420.5390543
21
-72.7683881
0
LINE
8
0
6
CONTINUOUS
10
418.744952
20
-70.8253055
11
400.5634576
21
-68.9485033
0
LINE
8
0
6
CONTINUOUS
10
398.7726659
20
-66.8350745
11
398.8847795
21
-65.0302714
0
LINE
8
0
6
CONTINUOUS
10
396.9741222
20
-62.9080995
11
373.4745578
21
-61.9026319
0
LINE
8
0
6
CONTINUOUS
10
373.4745578
20
-61.9026319
11
373.2095542
21
-61.9201411
0
LINE
8
0
6
CONTINUOUS
10
373.2095542
20
-61.9201411
11
353.6003925
21
-61.9372534
0
LINE
8
0
6
CONTINUOUS
10
351.6021518
20
-63.9298078
11
351.5845696
21
-68.6532051
0
LINE
8
0
6
CONTINUOUS
10
349.5863289
20
-70.6457595
11
306.417176
21
-70.6834318
0
LINE
8
0
6
CONTINUOUS
10
304.4189222
20
-72.6851764
11
304.469203
21
-130.3026709
0
LINE
8
0
6
CONTINUOUS
10
304.4990327
20
-130.6450651
11
307.2337434
21
-146.301046
0
LINE
8
0
6
CONTINUOUS
10
307.4727355
20
-146.9584177
11
319.0626195
21
-166.9922903
0
LINE
8
0
6
CONTINUOUS
10
321.7953082
20
-167.7219565
11
339.325953
21
-157.5802259
0
LINE
8
0
6
CONTINUOUS
10
339.7774928
20
-157.3885067
11
359.2365545
21
-151.822983
0
LINE
8
0
6
CONTINUOUS
10
360.6179823
20
-149.3807626
11
356.1035102
21
-132.5911441
0
LINE
8
0
6
CONTINUOUS
10
357.4128756
20
-130.1710115
11
363.9985699
21
-128.0158631
0
LINE
8
0
6
CONTINUOUS
10
364.5495743
20
-127.9179336
11
383.2587664
21
-127.2530637
0
LINE
8
0
6
CONTINUOUS
10
383.3212686
20
-127.2518202
11
398.212354
21
-127.1883307
0
LINE
8
0
6
CONTINUOUS
10
398.9505881
20
-158.9200866
11
400.219053
21
-129.2738075
0
LINE
8
0
6
CONTINUOUS
10
400.8932839
20
-161.0048121
11
407.3980013
21
-161.1853095
0
LINE
8
0
6
CONTINUOUS
10
409.1420567
20
-160.257853
11
417.7168426
21
-146.7482824
0
LINE
8
0
6
CONTINUOUS
10
419.7337956
20
-145.8471978
11
430.6321343
21
-147.6611788
0
ARC
8
0
6
CONTINUOUS
10
440.5675368
20
-82.812395
40
2
50
351.3127704
51
80.550003
0
ARC
8
0
6
CONTINUOUS
10
422.6091265
20
-75.7682662
40
2
50
181.3278396
51
260.550003
0
ARC
8
0
6
CONTINUOUS
10
418.5395914
20
-72.8147343
40
2
50
1.3278396
51
84.1064648
0
ARC
8
0
6
CONTINUOUS
10
400.7688182
20
-66.9590745
40
2
50
176.4453817
51
264.1064648
0
ARC
8
0
6
CONTINUOUS
10
396.8886272
20
-64.9062713
40
2
50
356.4453817
51
87.5500021
0
ARC
8
0
6
CONTINUOUS
10
353.6021379
20
-63.9372526
40
2
50
90.050002
51
179.7867217
0
ARC
8
0
6
CONTINUOUS
10
349.5845835
20
-68.6457603
40
2
50
270.050002
51
359.7867217
0
ARC
8
0
6
CONTINUOUS
10
306.4189214
20
-72.683431
40
2
50
90.050002
51
180.050002
0
ARC
8
0
6
CONTINUOUS
10
306.4692022
20
-130.3009255
40
2
50
180.050002
51
189.9081831
0
ARC
8
0
6
CONTINUOUS
10
309.2039129
20
-145.9569065
40
2
50
189.9081831
51
210.0500032
0
ARC
8
0
6
CONTINUOUS
10
320.793797
20
-165.9907791
40
2
50
210.0500032
51
300.0500032
0
ARC
8
0
6
CONTINUOUS
10
340.3274642
20
-159.3114033
40
2
50
105.9611622
51
120.0500032
0
ARC
8
0
6
CONTINUOUS
10
358.6865831
20
-149.9000864
40
2
50
285.9611622
51
15.0500013
0
ARC
8
0
6
CONTINUOUS
10
358.0349094
20
-132.0718203
40
2
50
108.120524
51
195.0500013
0
ARC
8
0
6
CONTINUOUS
10
364.6206037
20
-129.9166719
40
2
50
92.0352703
51
108.120524
0
ARC
8
0
6
CONTINUOUS
10
383.3297958
20
-129.251802
40
2
50
90.244287
51
92.0352703
0
ARC
8
0
6
CONTINUOUS
10
398.2208812
20
-129.1883125
40
2
50
357.5500021
51
90.244287
0
ARC
8
0
6
CONTINUOUS
10
400.9487599
20
-159.0055816
40
2
50
177.5500021
51
268.4105258
0
ARC
8
0
6
CONTINUOUS
10
407.4534773
20
-159.186079
40
2
50
268.4105258
51
327.5959139
0
ARC
8
0
6
CONTINUOUS
10
419.405422
20
-147.8200564
40
2
50
80.550003
51
147.5959139
0
ARC
8
0
6
CONTINUOUS
10
430.9605079
20
-145.6883203
40
2
50
260.550003
51
351.3127704
0
LINE
8
0
6
CONTINUOUS
10
412.0301724
20
-138.381043
11
426.8266113
21
-140.8438457
0
LINE
8
0
6
CONTINUOUS
10
426.8266113
20
-140.8438457
11
429.289414
21
-126.0474068
0
LINE
8
0
6
CONTINUOUS
10
429.289414
20
-126.0474068
11
414.4929751
21
-123.5846041
0
LINE
8
0
6
CONTINUOUS
10
414.4929751
20
-123.5846041
11
412.0301724
21
-138.381043
0
LINE
8
0
6
CONTINUOUS
10
414.8870235
20
-121.2171739
11
429.6834624
21
-123.6799766
0
LINE
8
0
6
CONTINUOUS
10
429.6834624
20
-123.6799766
11
432.1462651
21
-108.8835377
0
LINE
8
0
6
CONTINUOUS
10
432.1462651
20
-108.8835377
11
417.3498262
21
-106.420735
0
LINE
8
0
6
CONTINUOUS
10
417.3498262
20
-106.420735
11
414.8870235
21
-121.2171739
0
LINE
8
0
6
CONTINUOUS
10
417.7438747
20
-104.0533049
11
432.5403136
21
-106.5161076
0
LINE
8
0
6
CONTINUOUS
10
432.5403136
20
-106.5161076
11
435.0031163
21
-91.7196687
0
LINE
8
0
6
CONTINUOUS
10
435.0031163
20
-91.7196687
11
420.2066774
21
-89.256866
0
LINE
8
0
6
CONTINUOUS
10
420.2066774
20
-89.256866
11
417.7438747
21
-104.0533049
0
LINE
8
0
6
CONTINUOUS
10
394.7230262
20
-123.8471048
11
409.6552181
21
-125.2717609
0
LINE
8
0
6
CONTINUOUS
10
409.6552181
20
-125.2717609
11
411.0798742
21
-110.339569
0
LINE
8
0
6
CONTINUOUS
10
411.0798742
20
-110.339569
11
396.1476823
21
-108.9149129
0
LINE
8
0
6
CONTINUOUS
10
396.1476823
20
-108.9149129
11
394.7230262
21
-123.8471048
0
LINE
8
0
6
CONTINUOUS
10
396.3756273
20
-106.5257622
11
411.3078192
21
-107.9504183
0
LINE
8
0
6
CONTINUOUS
10
411.3078192
20
-107.9504183
11
412.7324753
21
-93.0182264
0
LINE
8
0
6
CONTINUOUS
10
412.7324753
20
-93.0182264
11
397.8002834
21
-91.5935703
0
LINE
8
0
6
CONTINUOUS
10
397.8002834
20
-91.5935703
11
396.3756273
21
-106.5257622
0
LINE
8
0
6
CONTINUOUS
10
398.0282283
20
-89.2044195
11
412.9604202
21
-90.6290756
0
LINE
8
0
6
CONTINUOUS
10
412.9604202
20
-90.6290756
11
414.3850763
21
-75.6968837
0
LINE
8
0
6
CONTINUOUS
10
414.3850763
20
-75.6968837
11
399.4528844
21
-74.2722276
0
LINE
8
0
6
CONTINUOUS
10
399.4528844
20
-74.2722276
11
398.0282283
21
-89.2044195
0
LINE
8
0
6
CONTINUOUS
10
376.2457124
20
-116.440945
11
391.232001
21
-117.082158
0
LINE
8
0
6
CONTINUOUS
10
391.232001
20
-117.082158
11
391.873214
21
-102.0958694
0
LINE
8
0
6
CONTINUOUS
10
391.873214
20
-102.0958694
11
376.8869254
21
-101.4546564
0
LINE
8
0
6
CONTINUOUS
10
376.8869254
20
-101.4546564
11
376.2457124
21
-116.440945
0
LINE
8
0
6
CONTINUOUS
10
376.9895195
20
-99.0568503
11
391.9758081
21
-99.6980633
0
LINE
8
0
6
CONTINUOUS
10
391.9758081
20
-99.6980633
11
392.6170211
21
-84.7117747
0
LINE
8
0
6
CONTINUOUS
10
392.6170211
20
-84.7117747
11
377.6307325
21
-84.0705617
0
LINE
8
0
6
CONTINUOUS
10
377.6307325
20
-84.0705617
11
376.9895195
21
-99.0568503
0
LINE
8
0
6
CONTINUOUS
10
377.7333266
20
-81.6727556
11
392.7196152
21
-82.3139686
0
LINE
8
0
6
CONTINUOUS
10
392.7196152
20
-82.3139686
11
393.3608282
21
-67.32768
0
LINE
8
0
6
CONTINUOUS
10
393.3608282
20
-67.32768
11
378.3745396
21
-66.686467
0
LINE
8
0
6
CONTINUOUS
10
378.3745396
20
-66.686467
11
377.7333266
21
-81.6727556
0
LINE
8
0
6
CONTINUOUS
10
356.7632293
20
-123.4345167
11
371.7632236
21
-123.4214268
0
LINE
8
0
6
CONTINUOUS
10
371.7632236
20
-123.4214268
11
371.7501337
21
-108.4214325
0
LINE
8
0
6
CONTINUOUS
10
371.7501337
20
-108.4214325
11
356.7501394
21
-108.4345224
0
LINE
8
0
6
CONTINUOUS
10
356.7501394
20
-108.4345224
11
356.7632293
21
-123.4345167
0
LINE
8
0
6
CONTINUOUS
10
356.748045
20
-106.0345233
11
371.7480393
21
-106.0214334
0
LINE
8
0
6
CONTINUOUS
10
371.7480393
20
-106.0214334
11
371.7349494
21
-91.0214391
0
LINE
8
0
6
CONTINUOUS
10
371.7349494
20
-91.0214391
11
356.7349551
21
-91.034529
0
LINE
8
0
6
CONTINUOUS
10
356.7349551
20
-91.034529
11
356.748045
21
-106.0345233
0
LINE
8
0
6
CONTINUOUS
10
356.7328606
20
-88.6345299
11
371.7328549
21
-88.62144
0
LINE
8
0
6
CONTINUOUS
10
371.7328549
20
-88.62144
11
371.719765
21
-73.6214457
0
LINE
8
0
6
CONTINUOUS
10
371.719765
20
-73.6214457
11
356.7197707
21
-73.6345356
0
LINE
8
0
6
CONTINUOUS
10
356.7197707
20
-73.6345356
11
356.7328606
21
-88.6345299
0
LINE
8
0
6
CONTINUOUS
10
338.3649816
20
-125.4505729
11
353.3649759
21
-125.437483
0
LINE
8
0
6
CONTINUOUS
10
353.3649759
20
-125.437483
11
353.351886
21
-110.4374887
0
LINE
8
0
6
CONTINUOUS
10
353.351886
20
-110.4374887
11
338.3518917
21
-110.4505786
0
LINE
8
0
6
CONTINUOUS
10
338.3518917
20
-110.4505786
11
338.3649816
21
-125.4505729
0
LINE
8
0
6
CONTINUOUS
10
338.3497973
20
-108.0505795
11
353.3497916
21
-108.0374896
0
LINE
8
0
6
CONTINUOUS
10
353.3497916
20
-108.0374896
11
353.3367017
21
-93.0374953
0
LINE
8
0
6
CONTINUOUS
10
353.3367017
20
-93.0374953
11
338.3367074
21
-93.0505852
0
LINE
8
0
6
CONTINUOUS
10
338.3367074
20
-93.0505852
11
338.3497973
21
-108.0505795
0
LINE
8
0
6
CONTINUOUS
10
338.3346129
20
-90.6505861
11
353.3346072
21
-90.6374962
0
LINE
8
0
6
CONTINUOUS
10
353.3346072
20
-90.6374962
11
353.3215173
21
-75.6375019
0
LINE
8
0
6
CONTINUOUS
10
353.3215173
20
-75.6375019
11
338.321523
21
-75.6505918
0
LINE
8
0
6
CONTINUOUS
10
338.321523
20
-75.6505918
11
338.3346129
21
-90.6505861
0
LINE
8
0
6
CONTINUOUS
10
340.3553256
20
-151.4309697
11
354.8408195
21
-147.5360416
0
LINE
8
0
6
CONTINUOUS
10
354.8408195
20
-147.5360416
11
350.9458914
21
-133.0505477
0
LINE
8
0
6
CONTINUOUS
10
350.9458914
20
-133.0505477
11
336.4603975
21
-136.9454758
0
LINE
8
0
6
CONTINUOUS
10
336.4603975
20
-136.9454758
11
340.3553256
21
-151.4309697
0
LINE
8
0
6
CONTINUOUS
10
322.6286963
20
-161.1745935
11
335.6125275
21
-153.6632601
0
LINE
8
0
6
CONTINUOUS
10
335.6125275
20
-153.6632601
11
328.1011941
21
-140.6794289
0
LINE
8
0
6
CONTINUOUS
10
328.1011941
20
-140.6794289
11
315.1173629
21
-148.1907623
0
LINE
8
0
6
CONTINUOUS
10
315.1173629
20
-148.1907623
11
322.6286963
21
-161.1745935
0
CIRCLE
8
0
6
CONTINUOUS
10
428.6228553
20
-84.372406
40
2.2
0
CIRCLE
8
0
6
CONTINUOUS
10
364.2143573
20
-67.427993
40
2.2
0
CIRCLE
8
0
6
CONTINUOUS
10
309.4214031
20
-75.5258119
40
2.2
0
CIRCLE
8
0
6
CONTINUOUS
10
318.8658617
20
-126.4675895
40
2.2
0
CIRCLE
8
0
6
CONTINUOUS
10
408.9907535
20
-147.5058407
40
2.2
0
CIRCLE
8
0
6
CONTINUOUS
10
383.4738219
20
-122.9558841
40
2.2
0
CIRCLE
8
0
6
CONTINUOUS
10
385.8170424
20
-138.3701411
40
2.2
0
CIRCLE
8
0
6
CONTINUOUS
10
385.1330818
20
-154.3555156
40
2.2
0
LINE
8
0
6
CONTINUOUS
10
396.99387
20
-157.8657437
11
398.9920418
21
-157.9512388
0
LINE
8
0
6
CONTINUOUS
10
399.9324876
20
-135.9713489
11
397.9343158
21
-135.8858538
0
LINE
8
0
6
CONTINUOUS
10
397.9343158
20
-135.8858538
11
396.99387
21
-157.8657437
0
LINE
8
0
6
CONTINUOUS
10
314.8459665
20
-103.6710888
11
332.8459596
21
-103.6553808
0
LINE
8
0
6
CONTINUOUS
10
332.8459596
20
-103.6553808
11
332.8171617
21
-70.6553934
0
LINE
8
0
6
CONTINUOUS
10
332.8171617
20
-70.6553934
11
314.8171686
21
-70.6711014
0
LINE
8
0
6
CONTINUOUS
10
314.8171686
20
-70.6711014
11
314.8459665
21
-103.6710888
0
LINE
8
0
6
CONTINUOUS
10
304.3905956
20
-108.9802149
11
304.3958316
21
-114.9802126
0
LINE
8
0
6
CONTINUOUS
10
304.3958316
20
-114.9802126
11
316.395827
21
-114.9697407
0
LINE
8
0
6
CONTINUOUS
10
316.395827
20
-114.9697407
11
316.390591
21
-108.969743
0
LINE
8
0
6
CONTINUOUS
10
316.390591
20
-108.969743
11
304.3905956
21
-108.9802149
0
CIRCLE
8
0
6
CONTINUOUS
10
420.6597932
20
-132.2142249
40
1
0
CIRCLE
8
0
6
CONTINUOUS
10
423.5166443
20
-115.0503558
40
1
0
CIRCLE
8
0
6
CONTINUOUS
10
426.3734955
20
-97.8864868
40
1
0
CIRCLE
8
0
6
CONTINUOUS
10
402.9014502
20
-117.0933369
40
1
0
CIRCLE
8
0
6
CONTINUOUS
10
404.5540513
20
-99.7719943
40
1
0
CIRCLE
8
0
6
CONTINUOUS
10
406.2066523
20
-82.4506516
40
1
0
CIRCLE
8
0
6
CONTINUOUS
10
384.0594632
20
-109.2684072
40
1
0
CIRCLE
8
0
6
CONTINUOUS
10
384.8032703
20
-91.8843125
40
1
0
CIRCLE
8
0
6
CONTINUOUS
10
385.5470774
20
-74.5002178
40
1
0
CIRCLE
8
0
6
CONTINUOUS
10
364.2566815
20
-115.9279746
40
1
0
CIRCLE
8
0
6
CONTINUOUS
10
364.2414972
20
-98.5279812
40
1
0
CIRCLE
8
0
6
CONTINUOUS
10
364.2263128
20
-81.1279878
40
1
0
CIRCLE
8
0
6
CONTINUOUS
10
345.8584338
20
-117.9440308
40
1
0
CIRCLE
8
0
6
CONTINUOUS
10
345.8432495
20
-100.5440374
40
1
0
CIRCLE
8
0
6
CONTINUOUS
10
345.8280651
20
-83.144044
40
1
0
CIRCLE
8
0
6
CONTINUOUS
10
345.6506085
20
-142.2407587
40
1
0
CIRCLE
8
0
6
CONTINUOUS
10
325.3649452
20
-150.9270112
40
1
0
LINE
8
0
6
CONTINUOUS
10
410.3863417
20
-139.121192
11
428.1420683
21
-142.0765552
0
LINE
8
0
6
CONTINUOUS
10
428.1420683
20
-142.0765552
11
430.9332447
21
-125.3072578
0
LINE
8
0
6
CONTINUOUS
10
430.9332447
20
-125.3072578
11
413.1775181
21
-122.3518946
0
LINE
8
0
6
CONTINUOUS
10
413.1775181
20
-122.3518946
11
410.3863417
21
-139.121192
0
LINE
8
0
6
CONTINUOUS
10
413.2431928
20
-121.9573229
11
430.9989194
21
-124.9126861
0
LINE
8
0
6
CONTINUOUS
10
430.9989194
20
-124.9126861
11
433.7900958
21
-108.1433887
0
LINE
8
0
6
CONTINUOUS
10
433.7900958
20
-108.1433887
11
416.0343692
21
-105.1880255
0
LINE
8
0
6
CONTINUOUS
10
416.0343692
20
-105.1880255
11
413.2431928
21
-121.9573229
0
LINE
8
0
6
CONTINUOUS
10
416.100044
20
-104.7934539
11
433.8557706
21
-107.7488171
0
LINE
8
0
6
CONTINUOUS
10
433.8557706
20
-107.7488171
11
436.646947
21
-90.9795197
0
LINE
8
0
6
CONTINUOUS
10
436.646947
20
-90.9795197
11
418.8912204
21
-88.0241565
0
LINE
8
0
6
CONTINUOUS
10
418.8912204
20
-88.0241565
11
416.100044
21
-104.7934539
0
LINE
8
0
6
CONTINUOUS
10
393.13483
20
-124.7001187
11
411.0534603
21
-126.4097059
0
LINE
8
0
6
CONTINUOUS
10
411.0534603
20
-126.4097059
11
412.6680704
21
-109.4865551
0
LINE
8
0
6
CONTINUOUS
10
412.6680704
20
-109.4865551
11
394.7494401
21
-107.7769679
0
LINE
8
0
6
CONTINUOUS
10
394.7494401
20
-107.7769679
11
393.13483
21
-124.7001187
0
LINE
8
0
6
CONTINUOUS
10
394.7874311
20
-107.3787761
11
412.7060614
21
-109.0883633
0
LINE
8
0
6
CONTINUOUS
10
412.7060614
20
-109.0883633
11
414.3206715
21
-92.1652125
0
LINE
8
0
6
CONTINUOUS
10
414.3206715
20
-92.1652125
11
396.4020412
21
-90.4556253
0
LINE
8
0
6
CONTINUOUS
10
396.4020412
20
-90.4556253
11
394.7874311
21
-107.3787761
0
LINE
8
0
6
CONTINUOUS
10
396.4400321
20
-90.0574334
11
414.3586624
21
-91.7670206
0
LINE
8
0
6
CONTINUOUS
10
414.3586624
20
-91.7670206
11
415.9732725
21
-74.8438698
0
LINE
8
0
6
CONTINUOUS
10
415.9732725
20
-74.8438698
11
398.0546422
21
-73.1342826
0
LINE
8
0
6
CONTINUOUS
10
398.0546422
20
-73.1342826
11
396.4400321
21
-90.0574334
0
LINE
8
0
6
CONTINUOUS
10
374.704336
20
-117.3759096
11
392.6878823
21
-118.1453652
0
LINE
8
0
6
CONTINUOUS
10
392.6878823
20
-118.1453652
11
393.4145904
21
-101.1609048
0
LINE
8
0
6
CONTINUOUS
10
393.4145904
20
-101.1609048
11
375.4310441
21
-100.3914492
0
LINE
8
0
6
CONTINUOUS
10
375.4310441
20
-100.3914492
11
374.704336
21
-117.3759096
0
LINE
8
0
6
CONTINUOUS
10
375.4481431
20
-99.9918149
11
393.4316894
21
-100.7612705
0
LINE
8
0
6
CONTINUOUS
10
393.4316894
20
-100.7612705
11
394.1583975
21
-83.7768101
0
LINE
8
0
6
CONTINUOUS
10
394.1583975
20
-83.7768101
11
376.1748512
21
-83.0073545
0
LINE
8
0
6
CONTINUOUS
10
376.1748512
20
-83.0073545
11
375.4481431
21
-99.9918149
0
LINE
8
0
6
CONTINUOUS
10
376.1919502
20
-82.6077202
11
394.1754965
21
-83.3771758
0
LINE
8
0
6
CONTINUOUS
10
394.1754965
20
-83.3771758
11
394.9022046
21
-66.3927154
0
LINE
8
0
6
CONTINUOUS
10
394.9022046
20
-66.3927154
11
376.9186583
21
-65.6232598
0
LINE
8
0
6
CONTINUOUS
10
376.9186583
20
-65.6232598
11
376.1919502
21
-82.6077202
0
LINE
8
0
6
CONTINUOUS
10
355.2641026
20
-124.4358253
11
373.2640957
21
-124.4201174
0
LINE
8
0
6
CONTINUOUS
10
373.2640957
20
-124.4201174
11
373.2492604
21
-107.4201239
0
LINE
8
0
6
CONTINUOUS
10
373.2492604
20
-107.4201239
11
355.2492673
21
-107.4358318
0
LINE
8
0
6
CONTINUOUS
10
355.2492673
20
-107.4358318
11
355.2641026
21
-124.4358253
0
LINE
8
0
6
CONTINUOUS
10
355.2489183
20
-107.0358319
11
373.2489114
21
-107.020124
0
LINE
8
0
6
CONTINUOUS
10
373.2489114
20
-107.020124
11
373.2340761
21
-90.0201305
0
LINE
8
0
6
CONTINUOUS
10
373.2340761
20
-90.0201305
11
355.234083
21
-90.0358384
0
LINE
8
0
6
CONTINUOUS
10
355.234083
20
-90.0358384
11
355.2489183
21
-107.0358319
0
LINE
8
0
6
CONTINUOUS
10
355.2337339
20
-89.6358385
11
373.233727
21
-89.6201306
0
LINE
8
0
6
CONTINUOUS
10
373.233727
20
-89.6201306
11
373.2188917
21
-72.6201371
0
LINE
8
0
6
CONTINUOUS
10
373.2188917
20
-72.6201371
11
355.2188986
21
-72.635845
0
LINE
8
0
6
CONTINUOUS
10
355.2188986
20
-72.635845
11
355.2337339
21
-89.6358385
0
LINE
8
0
6
CONTINUOUS
10
336.8658549
20
-126.4518815
11
354.865848
21
-126.4361736
0
LINE
8
0
6
CONTINUOUS
10
354.865848
20
-126.4361736
11
354.8510127
21
-109.4361801
0
LINE
8
0
6
CONTINUOUS
10
354.8510127
20
-109.4361801
11
336.8510196
21
-109.451888
0
LINE
8
0
6
CONTINUOUS
10
336.8510196
20
-109.451888
11
336.8658549
21
-126.4518815
0
LINE
8
0
6
CONTINUOUS
10
336.8506706
20
-109.0518881
11
354.8506637
21
-109.0361802
0
LINE
8
0
6
CONTINUOUS
10
354.8506637
20
-109.0361802
11
354.8358284
21
-92.0361867
0
LINE
8
0
6
CONTINUOUS
10
354.8358284
20
-92.0361867
11
336.8358353
21
-92.0518946
0
LINE
8
0
6
CONTINUOUS
10
336.8358353
20
-92.0518946
11
336.8506706
21
-109.0518881
0
LINE
8
0
6
CONTINUOUS
10
336.8354862
20
-91.6518947
11
354.8354793
21
-91.6361868
0
LINE
8
0
6
CONTINUOUS
10
354.8354793
20
-91.6361868
11
354.820644
21
-74.6361933
0
LINE
8
0
6
CONTINUOUS
10
354.820644
20
-74.6361933
11
336.8206509
21
-74.6519012
0
LINE
8
0
6
CONTINUOUS
10
336.8206509
20
-74.6519012
11
336.8354862
21
-91.6518947
0
LINE
8
0
6
CONTINUOUS
10
339.1664381
20
-152.7861622
11
356.5490308
21
-148.1122484
0
LINE
8
0
6
CONTINUOUS
10
356.5490308
20
-148.1122484
11
352.1347789
21
-131.6953552
0
LINE
8
0
6
CONTINUOUS
10
352.1347789
20
-131.6953552
11
334.7521862
21
-136.369269
0
LINE
8
0
6
CONTINUOUS
10
334.7521862
20
-136.369269
11
339.1664381
21
-152.7861622
0
LINE
8
0
6
CONTINUOUS
10
321.8310688
20
-162.7913155
11
337.4116661
21
-153.7777155
0
LINE
8
0
6
CONTINUOUS
10
337.4116661
20
-153.7777155
11
328.8988216
21
-139.0627069
0
LINE
8
0
6
CONTINUOUS
10
328.8988216
20
-139.0627069
11
313.3182243
21
-148.0763069
0
LINE
8
0
6
CONTINUOUS
10
313.3182243
20
-148.0763069
11
321.8310688
21
-162.7913155
0
ENDSEC
0
EOF