0
SECTION
2
HEADER
9
$INSUNITS
70
4
0
ENDSEC
0
SECTION
2
TABLES
0
TABLE
2
LTYPE
0
LTYPE
72
65
70
0
2
CONTINUOUS
3
______
73
0
40
0
0
LTYPE
72
65
70
0
2
DASHED
3
_ _ _ 
73
2
40
7.5
49
5
49
-2.5
0
LTYPE
72
65
70
0
2
DOTTED
3
. . . 
73
2
40
1.5
49
0.5
49
-1
0
ENDTAB
0
TABLE
2
LAYER
0
ENDTAB
0
ENDSEC
0
SECTION
2
ENTITIES
0
CIRCLE
8
0
6
CONTINUOUS
10
408.6228553
20
-84.372406
40
2.2
0
CIRCLE
8
0
6
CONTINUOUS
10
344.2143573
20
-67.427993
40
2.2
0
CIRCLE
8
0
6
CONTINUOUS
10
289.4214031
20
-75.5258119
40
2.2
0
CIRCLE
8
0
6
CONTINUOUS
10
298.8658617
20
-126.4675895
40
2.2
0
CIRCLE
8
0
6
CONTINUOUS
10
388.9907535
20
-147.5058407
40
2.2
0
CIRCLE
8
0
6
CONTINUOUS
10
363.4738219
20
-122.9558841
40
2.2
0
ENDSEC
0
EOF