0
SECTION
2
HEADER
9
$INSUNITS
70
4
0
ENDSEC
0
SECTION
2
TABLES
0
TABLE
2
LTYPE
0
LTYPE
72
65
70
0
2
CONTINUOUS
3
______
73
0
40
0
0
LTYPE
72
65
70
0
2
DASHED
3
_ _ _ 
73
2
40
7.5
49
5
49
-2.5
0
LTYPE
72
65
70
0
2
DOTTED
3
. . . 
73
2
40
1.5
49
0.5
49
-1
0
ENDTAB
0
TABLE
2
LAYER
0
ENDTAB
0
ENDSEC
0
SECTION
2
ENTITIES
0
CIRCLE
8
0
6
CONTINUOUS
10
400.6597932
20
-132.2142249
40
1
0
CIRCLE
8
0
6
CONTINUOUS
10
403.5166443
20
-115.0503558
40
1
0
CIRCLE
8
0
6
CONTINUOUS
10
406.3734955
20
-97.8864868
40
1
0
CIRCLE
8
0
6
CONTINUOUS
10
382.9014502
20
-117.0933369
40
1
0
CIRCLE
8
0
6
CONTINUOUS
10
384.5540513
20
-99.7719943
40
1
0
CIRCLE
8
0
6
CONTINUOUS
10
386.2066523
20
-82.4506516
40
1
0
CIRCLE
8
0
6
CONTINUOUS
10
364.0594632
20
-109.2684072
40
1
0
CIRCLE
8
0
6
CONTINUOUS
10
364.8032703
20
-91.8843125
40
1
0
CIRCLE
8
0
6
CONTINUOUS
10
365.5470774
20
-74.5002178
40
1
0
CIRCLE
8
0
6
CONTINUOUS
10
344.2566815
20
-115.9279746
40
1
0
CIRCLE
8
0
6
CONTINUOUS
10
344.2414972
20
-98.5279812
40
1
0
CIRCLE
8
0
6
CONTINUOUS
10
344.2263128
20
-81.1279878
40
1
0
CIRCLE
8
0
6
CONTINUOUS
10
325.8584338
20
-117.9440308
40
1
0
CIRCLE
8
0
6
CONTINUOUS
10
325.8432495
20
-100.5440374
40
1
0
CIRCLE
8
0
6
CONTINUOUS
10
325.8280651
20
-83.144044
40
1
0
CIRCLE
8
0
6
CONTINUOUS
10
325.6506085
20
-142.2407587
40
1
0
CIRCLE
8
0
6
CONTINUOUS
10
305.3649452
20
-150.9270112
40
1
0
LINE
8
0
6
CONTINUOUS
10
390.3863417
20
-139.121192
11
408.1420683
21
-142.0765552
0
LINE
8
0
6
CONTINUOUS
10
408.1420683
20
-142.0765552
11
410.9332447
21
-125.3072578
0
LINE
8
0
6
CONTINUOUS
10
410.9332447
20
-125.3072578
11
393.1775181
21
-122.3518946
0
LINE
8
0
6
CONTINUOUS
10
393.1775181
20
-122.3518946
11
390.3863417
21
-139.121192
0
LINE
8
0
6
CONTINUOUS
10
393.2431928
20
-121.9573229
11
410.9989194
21
-124.9126861
0
LINE
8
0
6
CONTINUOUS
10
410.9989194
20
-124.9126861
11
413.7900958
21
-108.1433887
0
LINE
8
0
6
CONTINUOUS
10
413.7900958
20
-108.1433887
11
396.0343692
21
-105.1880255
0
LINE
8
0
6
CONTINUOUS
10
396.0343692
20
-105.1880255
11
393.2431928
21
-121.9573229
0
LINE
8
0
6
CONTINUOUS
10
396.100044
20
-104.7934539
11
413.8557706
21
-107.7488171
0
LINE
8
0
6
CONTINUOUS
10
413.8557706
20
-107.7488171
11
416.646947
21
-90.9795197
0
LINE
8
0
6
CONTINUOUS
10
416.646947
20
-90.9795197
11
398.8912204
21
-88.0241565
0
LINE
8
0
6
CONTINUOUS
10
398.8912204
20
-88.0241565
11
396.100044
21
-104.7934539
0
LINE
8
0
6
CONTINUOUS
10
373.13483
20
-124.7001187
11
391.0534603
21
-126.4097059
0
LINE
8
0
6
CONTINUOUS
10
391.0534603
20
-126.4097059
11
392.6680704
21
-109.4865551
0
LINE
8
0
6
CONTINUOUS
10
392.6680704
20
-109.4865551
11
374.7494401
21
-107.7769679
0
LINE
8
0
6
CONTINUOUS
10
374.7494401
20
-107.7769679
11
373.13483
21
-124.7001187
0
LINE
8
0
6
CONTINUOUS
10
374.7874311
20
-107.3787761
11
392.7060614
21
-109.0883633
0
LINE
8
0
6
CONTINUOUS
10
392.7060614
20
-109.0883633
11
394.3206715
21
-92.1652125
0
LINE
8
0
6
CONTINUOUS
10
394.3206715
20
-92.1652125
11
376.4020412
21
-90.4556253
0
LINE
8
0
6
CONTINUOUS
10
376.4020412
20
-90.4556253
11
374.7874311
21
-107.3787761
0
LINE
8
0
6
CONTINUOUS
10
376.4400321
20
-90.0574334
11
394.3586624
21
-91.7670206
0
LINE
8
0
6
CONTINUOUS
10
394.3586624
20
-91.7670206
11
395.9732725
21
-74.8438698
0
LINE
8
0
6
CONTINUOUS
10
395.9732725
20
-74.8438698
11
378.0546422
21
-73.1342826
0
LINE
8
0
6
CONTINUOUS
10
378.0546422
20
-73.1342826
11
376.4400321
21
-90.0574334
0
LINE
8
0
6
CONTINUOUS
10
354.704336
20
-117.3759096
11
372.6878823
21
-118.1453652
0
LINE
8
0
6
CONTINUOUS
10
372.6878823
20
-118.1453652
11
373.4145904
21
-101.1609048
0
LINE
8
0
6
CONTINUOUS
10
373.4145904
20
-101.1609048
11
355.4310441
21
-100.3914492
0
LINE
8
0
6
CONTINUOUS
10
355.4310441
20
-100.3914492
11
354.704336
21
-117.3759096
0
LINE
8
0
6
CONTINUOUS
10
355.4481431
20
-99.9918149
11
373.4316894
21
-100.7612705
0
LINE
8
0
6
CONTINUOUS
10
373.4316894
20
-100.7612705
11
374.1583975
21
-83.7768101
0
LINE
8
0
6
CONTINUOUS
10
374.1583975
20
-83.7768101
11
356.1748512
21
-83.0073545
0
LINE
8
0
6
CONTINUOUS
10
356.1748512
20
-83.0073545
11
355.4481431
21
-99.9918149
0
LINE
8
0
6
CONTINUOUS
10
356.1919502
20
-82.6077202
11
374.1754965
21
-83.3771758
0
LINE
8
0
6
CONTINUOUS
10
374.1754965
20
-83.3771758
11
374.9022046
21
-66.3927154
0
LINE
8
0
6
CONTINUOUS
10
374.9022046
20
-66.3927154
11
356.9186583
21
-65.6232598
0
LINE
8
0
6
CONTINUOUS
10
356.9186583
20
-65.6232598
11
356.1919502
21
-82.6077202
0
LINE
8
0
6
CONTINUOUS
10
335.2641026
20
-124.4358253
11
353.2640957
21
-124.4201174
0
LINE
8
0
6
CONTINUOUS
10
353.2640957
20
-124.4201174
11
353.2492604
21
-107.4201239
0
LINE
8
0
6
CONTINUOUS
10
353.2492604
20
-107.4201239
11
335.2492673
21
-107.4358318
0
LINE
8
0
6
CONTINUOUS
10
335.2492673
20
-107.4358318
11
335.2641026
21
-124.4358253
0
LINE
8
0
6
CONTINUOUS
10
335.2489183
20
-107.0358319
11
353.2489114
21
-107.020124
0
LINE
8
0
6
CONTINUOUS
10
353.2489114
20
-107.020124
11
353.2340761
21
-90.0201305
0
LINE
8
0
6
CONTINUOUS
10
353.2340761
20
-90.0201305
11
335.234083
21
-90.0358384
0
LINE
8
0
6
CONTINUOUS
10
335.234083
20
-90.0358384
11
335.2489183
21
-107.0358319
0
LINE
8
0
6
CONTINUOUS
10
335.2337339
20
-89.6358385
11
353.233727
21
-89.6201306
0
LINE
8
0
6
CONTINUOUS
10
353.233727
20
-89.6201306
11
353.2188917
21
-72.6201371
0
LINE
8
0
6
CONTINUOUS
10
353.2188917
20
-72.6201371
11
335.2188986
21
-72.635845
0
LINE
8
0
6
CONTINUOUS
10
335.2188986
20
-72.635845
11
335.2337339
21
-89.6358385
0
LINE
8
0
6
CONTINUOUS
10
316.8658549
20
-126.4518815
11
334.865848
21
-126.4361736
0
LINE
8
0
6
CONTINUOUS
10
334.865848
20
-126.4361736
11
334.8510127
21
-109.4361801
0
LINE
8
0
6
CONTINUOUS
10
334.8510127
20
-109.4361801
11
316.8510196
21
-109.451888
0
LINE
8
0
6
CONTINUOUS
10
316.8510196
20
-109.451888
11
316.8658549
21
-126.4518815
0
LINE
8
0
6
CONTINUOUS
10
316.8506706
20
-109.0518881
11
334.8506637
21
-109.0361802
0
LINE
8
0
6
CONTINUOUS
10
334.8506637
20
-109.0361802
11
334.8358284
21
-92.0361867
0
LINE
8
0
6
CONTINUOUS
10
334.8358284
20
-92.0361867
11
316.8358353
21
-92.0518946
0
LINE
8
0
6
CONTINUOUS
10
316.8358353
20
-92.0518946
11
316.8506706
21
-109.0518881
0
LINE
8
0
6
CONTINUOUS
10
316.8354862
20
-91.6518947
11
334.8354793
21
-91.6361868
0
LINE
8
0
6
CONTINUOUS
10
334.8354793
20
-91.6361868
11
334.820644
21
-74.6361933
0
LINE
8
0
6
CONTINUOUS
10
334.820644
20
-74.6361933
11
316.8206509
21
-74.6519012
0
LINE
8
0
6
CONTINUOUS
10
316.8206509
20
-74.6519012
11
316.8354862
21
-91.6518947
0
LINE
8
0
6
CONTINUOUS
10
319.1664381
20
-152.7861622
11
336.5490308
21
-148.1122484
0
LINE
8
0
6
CONTINUOUS
10
336.5490308
20
-148.1122484
11
332.1347789
21
-131.6953552
0
LINE
8
0
6
CONTINUOUS
10
332.1347789
20
-131.6953552
11
314.7521862
21
-136.369269
0
LINE
8
0
6
CONTINUOUS
10
314.7521862
20
-136.369269
11
319.1664381
21
-152.7861622
0
LINE
8
0
6
CONTINUOUS
10
301.8310688
20
-162.7913155
11
317.4116661
21
-153.7777155
0
LINE
8
0
6
CONTINUOUS
10
317.4116661
20
-153.7777155
11
308.8988216
21
-139.0627069
0
LINE
8
0
6
CONTINUOUS
10
308.8988216
20
-139.0627069
11
293.3182243
21
-148.0763069
0
LINE
8
0
6
CONTINUOUS
10
293.3182243
20
-148.0763069
11
301.8310688
21
-162.7913155
0
ENDSEC
0
EOF