0
SECTION
2
HEADER
9
$INSUNITS
70
4
0
ENDSEC
0
SECTION
2
TABLES
0
TABLE
2
LTYPE
0
LTYPE
72
65
70
0
2
CONTINUOUS
3
______
73
0
40
0
0
LTYPE
72
65
70
0
2
DASHED
3
_ _ _ 
73
2
40
7.5
49
5
49
-2.5
0
LTYPE
72
65
70
0
2
DOTTED
3
. . . 
73
2
40
1.5
49
0.5
49
-1
0
ENDTAB
0
TABLE
2
LAYER
0
ENDTAB
0
ENDSEC
0
SECTION
2
ENTITIES
0
CIRCLE
8
0
6
CONTINUOUS
10
174.0700972
20
-132.2142249
40
1
0
CIRCLE
8
0
6
CONTINUOUS
10
171.2132461
20
-115.0503558
40
1
0
CIRCLE
8
0
6
CONTINUOUS
10
168.3563949
20
-97.8864868
40
1
0
CIRCLE
8
0
6
CONTINUOUS
10
191.8284402
20
-117.0933369
40
1
0
CIRCLE
8
0
6
CONTINUOUS
10
190.1758391
20
-99.7719943
40
1
0
CIRCLE
8
0
6
CONTINUOUS
10
188.5232381
20
-82.4506516
40
1
0
CIRCLE
8
0
6
CONTINUOUS
10
210.6704272
20
-109.2684072
40
1
0
CIRCLE
8
0
6
CONTINUOUS
10
209.9266201
20
-91.8843125
40
1
0
CIRCLE
8
0
6
CONTINUOUS
10
209.182813
20
-74.5002178
40
1
0
CIRCLE
8
0
6
CONTINUOUS
10
230.4732089
20
-115.9279746
40
1
0
CIRCLE
8
0
6
CONTINUOUS
10
230.4883932
20
-98.5279812
40
1
0
CIRCLE
8
0
6
CONTINUOUS
10
230.5035776
20
-81.1279878
40
1
0
CIRCLE
8
0
6
CONTINUOUS
10
248.8714566
20
-117.9440308
40
1
0
CIRCLE
8
0
6
CONTINUOUS
10
248.8866409
20
-100.5440374
40
1
0
CIRCLE
8
0
6
CONTINUOUS
10
248.9018253
20
-83.144044
40
1
0
CIRCLE
8
0
6
CONTINUOUS
10
226.8529645
20
-139.1248241
40
1
0
CIRCLE
8
0
6
CONTINUOUS
10
249.0792819
20
-142.2407587
40
1
0
CIRCLE
8
0
6
CONTINUOUS
10
269.3649452
20
-150.9270112
40
1
0
LINE
8
0
6
CONTINUOUS
10
166.5878221
20
-142.0765552
11
184.3435487
21
-139.121192
0
LINE
8
0
6
CONTINUOUS
10
184.3435487
20
-139.121192
11
181.5523723
21
-122.3518946
0
LINE
8
0
6
CONTINUOUS
10
181.5523723
20
-122.3518946
11
163.7966457
21
-125.3072578
0
LINE
8
0
6
CONTINUOUS
10
163.7966457
20
-125.3072578
11
166.5878221
21
-142.0765552
0
LINE
8
0
6
CONTINUOUS
10
163.730971
20
-124.9126861
11
181.4866976
21
-121.9573229
0
LINE
8
0
6
CONTINUOUS
10
181.4866976
20
-121.9573229
11
178.6955212
21
-105.1880255
0
LINE
8
0
6
CONTINUOUS
10
178.6955212
20
-105.1880255
11
160.9397946
21
-108.1433887
0
LINE
8
0
6
CONTINUOUS
10
160.9397946
20
-108.1433887
11
163.730971
21
-124.9126861
0
LINE
8
0
6
CONTINUOUS
10
160.8741198
20
-107.7488171
11
178.6298464
21
-104.7934539
0
LINE
8
0
6
CONTINUOUS
10
178.6298464
20
-104.7934539
11
175.83867
21
-88.0241565
0
LINE
8
0
6
CONTINUOUS
10
175.83867
20
-88.0241565
11
158.0829434
21
-90.9795197
0
LINE
8
0
6
CONTINUOUS
10
158.0829434
20
-90.9795197
11
160.8741198
21
-107.7488171
0
LINE
8
0
6
CONTINUOUS
10
183.6764301
20
-126.4097059
11
201.5950604
21
-124.7001187
0
LINE
8
0
6
CONTINUOUS
10
201.5950604
20
-124.7001187
11
199.9804503
21
-107.7769679
0
LINE
8
0
6
CONTINUOUS
10
199.9804503
20
-107.7769679
11
182.06182
21
-109.4865551
0
LINE
8
0
6
CONTINUOUS
10
182.06182
20
-109.4865551
11
183.6764301
21
-126.4097059
0
LINE
8
0
6
CONTINUOUS
10
182.023829
20
-109.0883633
11
199.9424593
21
-107.3787761
0
LINE
8
0
6
CONTINUOUS
10
199.9424593
20
-107.3787761
11
198.3278492
21
-90.4556253
0
LINE
8
0
6
CONTINUOUS
10
198.3278492
20
-90.4556253
11
180.4092189
21
-92.1652125
0
LINE
8
0
6
CONTINUOUS
10
180.4092189
20
-92.1652125
11
182.023829
21
-109.0883633
0
LINE
8
0
6
CONTINUOUS
10
180.371228
20
-91.7670206
11
198.2898583
21
-90.0574334
0
LINE
8
0
6
CONTINUOUS
10
198.2898583
20
-90.0574334
11
196.6752482
21
-73.1342826
0
LINE
8
0
6
CONTINUOUS
10
196.6752482
20
-73.1342826
11
178.7566179
21
-74.8438698
0
LINE
8
0
6
CONTINUOUS
10
178.7566179
20
-74.8438698
11
180.371228
21
-91.7670206
0
LINE
8
0
6
CONTINUOUS
10
202.0420081
20
-118.1453652
11
220.0255544
21
-117.3759096
0
LINE
8
0
6
CONTINUOUS
10
220.0255544
20
-117.3759096
11
219.2988463
21
-100.3914492
0
LINE
8
0
6
CONTINUOUS
10
219.2988463
20
-100.3914492
11
201.3153
21
-101.1609048
0
LINE
8
0
6
CONTINUOUS
10
201.3153
20
-101.1609048
11
202.0420081
21
-118.1453652
0
LINE
8
0
6
CONTINUOUS
10
201.298201
20
-100.7612705
11
219.2817473
21
-99.9918149
0
LINE
8
0
6
CONTINUOUS
10
219.2817473
20
-99.9918149
11
218.5550392
21
-83.0073545
0
LINE
8
0
6
CONTINUOUS
10
218.5550392
20
-83.0073545
11
200.5714929
21
-83.7768101
0
LINE
8
0
6
CONTINUOUS
10
200.5714929
20
-83.7768101
11
201.298201
21
-100.7612705
0
LINE
8
0
6
CONTINUOUS
10
200.5543939
20
-83.3771758
11
218.5379402
21
-82.6077202
0
LINE
8
0
6
CONTINUOUS
10
218.5379402
20
-82.6077202
11
217.8112321
21
-65.6232598
0
LINE
8
0
6
CONTINUOUS
10
217.8112321
20
-65.6232598
11
199.8276858
21
-66.3927154
0
LINE
8
0
6
CONTINUOUS
10
199.8276858
20
-66.3927154
11
200.5543939
21
-83.3771758
0
LINE
8
0
6
CONTINUOUS
10
221.4657947
20
-124.4201174
11
239.4657878
21
-124.4358253
0
LINE
8
0
6
CONTINUOUS
10
239.4657878
20
-124.4358253
11
239.4806231
21
-107.4358318
0
LINE
8
0
6
CONTINUOUS
10
239.4806231
20
-107.4358318
11
221.48063
21
-107.4201239
0
LINE
8
0
6
CONTINUOUS
10
221.48063
20
-107.4201239
11
221.4657947
21
-124.4201174
0
LINE
8
0
6
CONTINUOUS
10
221.480979
20
-107.020124
11
239.4809721
21
-107.0358319
0
LINE
8
0
6
CONTINUOUS
10
239.4809721
20
-107.0358319
11
239.4958074
21
-90.0358384
0
LINE
8
0
6
CONTINUOUS
10
239.4958074
20
-90.0358384
11
221.4958143
21
-90.0201305
0
LINE
8
0
6
CONTINUOUS
10
221.4958143
20
-90.0201305
11
221.480979
21
-107.020124
0
LINE
8
0
6
CONTINUOUS
10
221.4961634
20
-89.6201306
11
239.4961565
21
-89.6358385
0
LINE
8
0
6
CONTINUOUS
10
239.4961565
20
-89.6358385
11
239.5109918
21
-72.635845
0
LINE
8
0
6
CONTINUOUS
10
239.5109918
20
-72.635845
11
221.5109987
21
-72.6201371
0
LINE
8
0
6
CONTINUOUS
10
221.5109987
20
-72.6201371
11
221.4961634
21
-89.6201306
0
LINE
8
0
6
CONTINUOUS
10
239.8640424
20
-126.4361736
11
257.8640355
21
-126.4518815
0
LINE
8
0
6
CONTINUOUS
10
257.8640355
20
-126.4518815
11
257.8788708
21
-109.451888
0
LINE
8
0
6
CONTINUOUS
10
257.8788708
20
-109.451888
11
239.8788777
21
-109.4361801
0
LINE
8
0
6
CONTINUOUS
10
239.8788777
20
-109.4361801
11
239.8640424
21
-126.4361736
0
LINE
8
0
6
CONTINUOUS
10
239.8792267
20
-109.0361802
11
257.8792198
21
-109.0518881
0
LINE
8
0
6
CONTINUOUS
10
257.8792198
20
-109.0518881
11
257.8940551
21
-92.0518946
0
LINE
8
0
6
CONTINUOUS
10
257.8940551
20
-92.0518946
11
239.894062
21
-92.0361867
0
LINE
8
0
6
CONTINUOUS
10
239.894062
20
-92.0361867
11
239.8792267
21
-109.0361802
0
LINE
8
0
6
CONTINUOUS
10
239.8944111
20
-91.6361868
11
257.8944042
21
-91.6518947
0
LINE
8
0
6
CONTINUOUS
10
257.8944042
20
-91.6518947
11
257.9092395
21
-74.6519012
0
LINE
8
0
6
CONTINUOUS
10
257.9092395
20
-74.6519012
11
239.9092464
21
-74.6361933
0
LINE
8
0
6
CONTINUOUS
10
239.9092464
20
-74.6361933
11
239.8944111
21
-91.6361868
0
LINE
8
0
6
CONTINUOUS
10
217.8455503
20
-147.6169669
11
235.8455434
21
-147.6326748
0
LINE
8
0
6
CONTINUOUS
10
235.8455434
20
-147.6326748
11
235.8603787
21
-130.6326813
0
LINE
8
0
6
CONTINUOUS
10
235.8603787
20
-130.6326813
11
217.8603856
21
-130.6169734
0
LINE
8
0
6
CONTINUOUS
10
217.8603856
20
-130.6169734
11
217.8455503
21
-147.6169669
0
LINE
8
0
6
CONTINUOUS
10
238.1808596
20
-148.1122484
11
255.5634523
21
-152.7861622
0
LINE
8
0
6
CONTINUOUS
10
255.5634523
20
-152.7861622
11
259.9777042
21
-136.369269
0
LINE
8
0
6
CONTINUOUS
10
259.9777042
20
-136.369269
11
242.5951115
21
-131.6953552
0
LINE
8
0
6
CONTINUOUS
10
242.5951115
20
-131.6953552
11
238.1808596
21
-148.1122484
0
LINE
8
0
6
CONTINUOUS
10
257.3182243
20
-153.7777155
11
272.8988216
21
-162.7913155
0
LINE
8
0
6
CONTINUOUS
10
272.8988216
20
-162.7913155
11
281.4116661
21
-148.0763069
0
LINE
8
0
6
CONTINUOUS
10
281.4116661
20
-148.0763069
11
265.8310688
21
-139.0627069
0
LINE
8
0
6
CONTINUOUS
10
265.8310688
20
-139.0627069
11
257.3182243
21
-153.7777155
0
ENDSEC
0
EOF