0
SECTION
2
HEADER
9
$INSUNITS
70
4
0
ENDSEC
0
SECTION
2
TABLES
0
TABLE
2
LTYPE
0
LTYPE
72
65
70
0
2
CONTINUOUS
3
______
73
0
40
0
0
LTYPE
72
65
70
0
2
DASHED
3
_ _ _ 
73
2
40
7.5
49
5
49
-2.5
0
LTYPE
72
65
70
0
2
DOTTED
3
. . . 
73
2
40
1.5
49
0.5
49
-1
0
ENDTAB
0
TABLE
2
LAYER
0
ENDTAB
0
ENDSEC
0
SECTION
2
ENTITIES
0
LINE
8
0
6
CONTINUOUS
10
392.0301724
20
-138.381043
11
406.8266113
21
-140.8438457
0
LINE
8
0
6
CONTINUOUS
10
406.8266113
20
-140.8438457
11
409.289414
21
-126.0474068
0
LINE
8
0
6
CONTINUOUS
10
409.289414
20
-126.0474068
11
394.4929751
21
-123.5846041
0
LINE
8
0
6
CONTINUOUS
10
394.4929751
20
-123.5846041
11
392.0301724
21
-138.381043
0
LINE
8
0
6
CONTINUOUS
10
394.8870235
20
-121.2171739
11
409.6834624
21
-123.6799766
0
LINE
8
0
6
CONTINUOUS
10
409.6834624
20
-123.6799766
11
412.1462651
21
-108.8835377
0
LINE
8
0
6
CONTINUOUS
10
412.1462651
20
-108.8835377
11
397.3498262
21
-106.420735
0
LINE
8
0
6
CONTINUOUS
10
397.3498262
20
-106.420735
11
394.8870235
21
-121.2171739
0
LINE
8
0
6
CONTINUOUS
10
397.7438747
20
-104.0533049
11
412.5403136
21
-106.5161076
0
LINE
8
0
6
CONTINUOUS
10
412.5403136
20
-106.5161076
11
415.0031163
21
-91.7196687
0
LINE
8
0
6
CONTINUOUS
10
415.0031163
20
-91.7196687
11
400.2066774
21
-89.256866
0
LINE
8
0
6
CONTINUOUS
10
400.2066774
20
-89.256866
11
397.7438747
21
-104.0533049
0
LINE
8
0
6
CONTINUOUS
10
374.7230262
20
-123.8471048
11
389.6552181
21
-125.2717609
0
LINE
8
0
6
CONTINUOUS
10
389.6552181
20
-125.2717609
11
391.0798742
21
-110.339569
0
LINE
8
0
6
CONTINUOUS
10
391.0798742
20
-110.339569
11
376.1476823
21
-108.9149129
0
LINE
8
0
6
CONTINUOUS
10
376.1476823
20
-108.9149129
11
374.7230262
21
-123.8471048
0
LINE
8
0
6
CONTINUOUS
10
376.3756273
20
-106.5257622
11
391.3078192
21
-107.9504183
0
LINE
8
0
6
CONTINUOUS
10
391.3078192
20
-107.9504183
11
392.7324753
21
-93.0182264
0
LINE
8
0
6
CONTINUOUS
10
392.7324753
20
-93.0182264
11
377.8002834
21
-91.5935703
0
LINE
8
0
6
CONTINUOUS
10
377.8002834
20
-91.5935703
11
376.3756273
21
-106.5257622
0
LINE
8
0
6
CONTINUOUS
10
378.0282283
20
-89.2044195
11
392.9604202
21
-90.6290756
0
LINE
8
0
6
CONTINUOUS
10
392.9604202
20
-90.6290756
11
394.3850763
21
-75.6968837
0
LINE
8
0
6
CONTINUOUS
10
394.3850763
20
-75.6968837
11
379.4528844
21
-74.2722276
0
LINE
8
0
6
CONTINUOUS
10
379.4528844
20
-74.2722276
11
378.0282283
21
-89.2044195
0
LINE
8
0
6
CONTINUOUS
10
356.2457124
20
-116.440945
11
371.232001
21
-117.082158
0
LINE
8
0
6
CONTINUOUS
10
371.232001
20
-117.082158
11
371.873214
21
-102.0958694
0
LINE
8
0
6
CONTINUOUS
10
371.873214
20
-102.0958694
11
356.8869254
21
-101.4546564
0
LINE
8
0
6
CONTINUOUS
10
356.8869254
20
-101.4546564
11
356.2457124
21
-116.440945
0
LINE
8
0
6
CONTINUOUS
10
356.9895195
20
-99.0568503
11
371.9758081
21
-99.6980633
0
LINE
8
0
6
CONTINUOUS
10
371.9758081
20
-99.6980633
11
372.6170211
21
-84.7117747
0
LINE
8
0
6
CONTINUOUS
10
372.6170211
20
-84.7117747
11
357.6307325
21
-84.0705617
0
LINE
8
0
6
CONTINUOUS
10
357.6307325
20
-84.0705617
11
356.9895195
21
-99.0568503
0
LINE
8
0
6
CONTINUOUS
10
357.7333266
20
-81.6727556
11
372.7196152
21
-82.3139686
0
LINE
8
0
6
CONTINUOUS
10
372.7196152
20
-82.3139686
11
373.3608282
21
-67.32768
0
LINE
8
0
6
CONTINUOUS
10
373.3608282
20
-67.32768
11
358.3745396
21
-66.686467
0
LINE
8
0
6
CONTINUOUS
10
358.3745396
20
-66.686467
11
357.7333266
21
-81.6727556
0
LINE
8
0
6
CONTINUOUS
10
336.7632293
20
-123.4345167
11
351.7632236
21
-123.4214268
0
LINE
8
0
6
CONTINUOUS
10
351.7632236
20
-123.4214268
11
351.7501337
21
-108.4214325
0
LINE
8
0
6
CONTINUOUS
10
351.7501337
20
-108.4214325
11
336.7501394
21
-108.4345224
0
LINE
8
0
6
CONTINUOUS
10
336.7501394
20
-108.4345224
11
336.7632293
21
-123.4345167
0
LINE
8
0
6
CONTINUOUS
10
336.748045
20
-106.0345233
11
351.7480393
21
-106.0214334
0
LINE
8
0
6
CONTINUOUS
10
351.7480393
20
-106.0214334
11
351.7349494
21
-91.0214391
0
LINE
8
0
6
CONTINUOUS
10
351.7349494
20
-91.0214391
11
336.7349551
21
-91.034529
0
LINE
8
0
6
CONTINUOUS
10
336.7349551
20
-91.034529
11
336.748045
21
-106.0345233
0
LINE
8
0
6
CONTINUOUS
10
336.7328606
20
-88.6345299
11
351.7328549
21
-88.62144
0
LINE
8
0
6
CONTINUOUS
10
351.7328549
20
-88.62144
11
351.719765
21
-73.6214457
0
LINE
8
0
6
CONTINUOUS
10
351.719765
20
-73.6214457
11
336.7197707
21
-73.6345356
0
LINE
8
0
6
CONTINUOUS
10
336.7197707
20
-73.6345356
11
336.7328606
21
-88.6345299
0
LINE
8
0
6
CONTINUOUS
10
318.3649816
20
-125.4505729
11
333.3649759
21
-125.437483
0
LINE
8
0
6
CONTINUOUS
10
333.3649759
20
-125.437483
11
333.351886
21
-110.4374887
0
LINE
8
0
6
CONTINUOUS
10
333.351886
20
-110.4374887
11
318.3518917
21
-110.4505786
0
LINE
8
0
6
CONTINUOUS
10
318.3518917
20
-110.4505786
11
318.3649816
21
-125.4505729
0
LINE
8
0
6
CONTINUOUS
10
318.3497973
20
-108.0505795
11
333.3497916
21
-108.0374896
0
LINE
8
0
6
CONTINUOUS
10
333.3497916
20
-108.0374896
11
333.3367017
21
-93.0374953
0
LINE
8
0
6
CONTINUOUS
10
333.3367017
20
-93.0374953
11
318.3367074
21
-93.0505852
0
LINE
8
0
6
CONTINUOUS
10
318.3367074
20
-93.0505852
11
318.3497973
21
-108.0505795
0
LINE
8
0
6
CONTINUOUS
10
318.3346129
20
-90.6505861
11
333.3346072
21
-90.6374962
0
LINE
8
0
6
CONTINUOUS
10
333.3346072
20
-90.6374962
11
333.3215173
21
-75.6375019
0
LINE
8
0
6
CONTINUOUS
10
333.3215173
20
-75.6375019
11
318.321523
21
-75.6505918
0
LINE
8
0
6
CONTINUOUS
10
318.321523
20
-75.6505918
11
318.3346129
21
-90.6505861
0
LINE
8
0
6
CONTINUOUS
10
320.3553256
20
-151.4309697
11
334.8408195
21
-147.5360416
0
LINE
8
0
6
CONTINUOUS
10
334.8408195
20
-147.5360416
11
330.9458914
21
-133.0505477
0
LINE
8
0
6
CONTINUOUS
10
330.9458914
20
-133.0505477
11
316.4603975
21
-136.9454758
0
LINE
8
0
6
CONTINUOUS
10
316.4603975
20
-136.9454758
11
320.3553256
21
-151.4309697
0
LINE
8
0
6
CONTINUOUS
10
302.6286963
20
-161.1745935
11
315.6125275
21
-153.6632601
0
LINE
8
0
6
CONTINUOUS
10
315.6125275
20
-153.6632601
11
308.1011941
21
-140.6794289
0
LINE
8
0
6
CONTINUOUS
10
308.1011941
20
-140.6794289
11
295.1173629
21
-148.1907623
0
LINE
8
0
6
CONTINUOUS
10
295.1173629
20
-148.1907623
11
302.6286963
21
-161.1745935
0
ENDSEC
0
EOF