0
SECTION
2
HEADER
9
$INSUNITS
70
4
0
ENDSEC
0
SECTION
2
TABLES
0
TABLE
2
LTYPE
0
LTYPE
72
65
70
0
2
CONTINUOUS
3
______
73
0
40
0
0
LTYPE
72
65
70
0
2
DASHED
3
_ _ _ 
73
2
40
7.5
49
5
49
-2.5
0
LTYPE
72
65
70
0
2
DOTTED
3
. . . 
73
2
40
1.5
49
0.5
49
-1
0
ENDTAB
0
TABLE
2
LAYER
0
ENDTAB
0
ENDSEC
0
SECTION
2
ENTITIES
0
LINE
8
0
6
CONTINUOUS
10
167.9032791
20
-140.8438457
11
182.699718
21
-138.381043
0
LINE
8
0
6
CONTINUOUS
10
182.699718
20
-138.381043
11
180.2369153
21
-123.5846041
0
LINE
8
0
6
CONTINUOUS
10
180.2369153
20
-123.5846041
11
165.4404764
21
-126.0474068
0
LINE
8
0
6
CONTINUOUS
10
165.4404764
20
-126.0474068
11
167.9032791
21
-140.8438457
0
LINE
8
0
6
CONTINUOUS
10
165.046428
20
-123.6799766
11
179.8428669
21
-121.2171739
0
LINE
8
0
6
CONTINUOUS
10
179.8428669
20
-121.2171739
11
177.3800642
21
-106.420735
0
LINE
8
0
6
CONTINUOUS
10
177.3800642
20
-106.420735
11
162.5836253
21
-108.8835377
0
LINE
8
0
6
CONTINUOUS
10
162.5836253
20
-108.8835377
11
165.046428
21
-123.6799766
0
LINE
8
0
6
CONTINUOUS
10
162.1895768
20
-106.5161076
11
176.9860157
21
-104.0533049
0
LINE
8
0
6
CONTINUOUS
10
176.9860157
20
-104.0533049
11
174.523213
21
-89.256866
0
LINE
8
0
6
CONTINUOUS
10
174.523213
20
-89.256866
11
159.7267741
21
-91.7196687
0
LINE
8
0
6
CONTINUOUS
10
159.7267741
20
-91.7196687
11
162.1895768
21
-106.5161076
0
LINE
8
0
6
CONTINUOUS
10
185.0746723
20
-125.2717609
11
200.0068642
21
-123.8471048
0
LINE
8
0
6
CONTINUOUS
10
200.0068642
20
-123.8471048
11
198.5822081
21
-108.9149129
0
LINE
8
0
6
CONTINUOUS
10
198.5822081
20
-108.9149129
11
183.6500162
21
-110.339569
0
LINE
8
0
6
CONTINUOUS
10
183.6500162
20
-110.339569
11
185.0746723
21
-125.2717609
0
LINE
8
0
6
CONTINUOUS
10
183.4220712
20
-107.9504183
11
198.3542631
21
-106.5257622
0
LINE
8
0
6
CONTINUOUS
10
198.3542631
20
-106.5257622
11
196.929607
21
-91.5935703
0
LINE
8
0
6
CONTINUOUS
10
196.929607
20
-91.5935703
11
181.9974151
21
-93.0182264
0
LINE
8
0
6
CONTINUOUS
10
181.9974151
20
-93.0182264
11
183.4220712
21
-107.9504183
0
LINE
8
0
6
CONTINUOUS
10
181.7694702
20
-90.6290756
11
196.7016621
21
-89.2044195
0
LINE
8
0
6
CONTINUOUS
10
196.7016621
20
-89.2044195
11
195.277006
21
-74.2722276
0
LINE
8
0
6
CONTINUOUS
10
195.277006
20
-74.2722276
11
180.3448141
21
-75.6968837
0
LINE
8
0
6
CONTINUOUS
10
180.3448141
20
-75.6968837
11
181.7694702
21
-90.6290756
0
LINE
8
0
6
CONTINUOUS
10
203.4978894
20
-117.082158
11
218.484178
21
-116.440945
0
LINE
8
0
6
CONTINUOUS
10
218.484178
20
-116.440945
11
217.842965
21
-101.4546564
0
LINE
8
0
6
CONTINUOUS
10
217.842965
20
-101.4546564
11
202.8566764
21
-102.0958694
0
LINE
8
0
6
CONTINUOUS
10
202.8566764
20
-102.0958694
11
203.4978894
21
-117.082158
0
LINE
8
0
6
CONTINUOUS
10
202.7540823
20
-99.6980633
11
217.7403709
21
-99.0568503
0
LINE
8
0
6
CONTINUOUS
10
217.7403709
20
-99.0568503
11
217.0991579
21
-84.0705617
0
LINE
8
0
6
CONTINUOUS
10
217.0991579
20
-84.0705617
11
202.1128693
21
-84.7117747
0
LINE
8
0
6
CONTINUOUS
10
202.1128693
20
-84.7117747
11
202.7540823
21
-99.6980633
0
LINE
8
0
6
CONTINUOUS
10
202.0102752
20
-82.3139686
11
216.9965638
21
-81.6727556
0
LINE
8
0
6
CONTINUOUS
10
216.9965638
20
-81.6727556
11
216.3553508
21
-66.686467
0
LINE
8
0
6
CONTINUOUS
10
216.3553508
20
-66.686467
11
201.3690622
21
-67.32768
0
LINE
8
0
6
CONTINUOUS
10
201.3690622
20
-67.32768
11
202.0102752
21
-82.3139686
0
LINE
8
0
6
CONTINUOUS
10
222.9666668
20
-123.4214268
11
237.9666611
21
-123.4345167
0
LINE
8
0
6
CONTINUOUS
10
237.9666611
20
-123.4345167
11
237.979751
21
-108.4345224
0
LINE
8
0
6
CONTINUOUS
10
237.979751
20
-108.4345224
11
222.9797567
21
-108.4214325
0
LINE
8
0
6
CONTINUOUS
10
222.9797567
20
-108.4214325
11
222.9666668
21
-123.4214268
0
LINE
8
0
6
CONTINUOUS
10
222.9818511
20
-106.0214334
11
237.9818454
21
-106.0345233
0
LINE
8
0
6
CONTINUOUS
10
237.9818454
20
-106.0345233
11
237.9949353
21
-91.034529
0
LINE
8
0
6
CONTINUOUS
10
237.9949353
20
-91.034529
11
222.994941
21
-91.0214391
0
LINE
8
0
6
CONTINUOUS
10
222.994941
20
-91.0214391
11
222.9818511
21
-106.0214334
0
LINE
8
0
6
CONTINUOUS
10
222.9970355
20
-88.62144
11
237.9970298
21
-88.6345299
0
LINE
8
0
6
CONTINUOUS
10
237.9970298
20
-88.6345299
11
238.0101197
21
-73.6345356
0
LINE
8
0
6
CONTINUOUS
10
238.0101197
20
-73.6345356
11
223.0101254
21
-73.6214457
0
LINE
8
0
6
CONTINUOUS
10
223.0101254
20
-73.6214457
11
222.9970355
21
-88.62144
0
LINE
8
0
6
CONTINUOUS
10
241.3649145
20
-125.437483
11
256.3649088
21
-125.4505729
0
LINE
8
0
6
CONTINUOUS
10
256.3649088
20
-125.4505729
11
256.3779987
21
-110.4505786
0
LINE
8
0
6
CONTINUOUS
10
256.3779987
20
-110.4505786
11
241.3780044
21
-110.4374887
0
LINE
8
0
6
CONTINUOUS
10
241.3780044
20
-110.4374887
11
241.3649145
21
-125.437483
0
LINE
8
0
6
CONTINUOUS
10
241.3800988
20
-108.0374896
11
256.3800931
21
-108.0505795
0
LINE
8
0
6
CONTINUOUS
10
256.3800931
20
-108.0505795
11
256.393183
21
-93.0505852
0
LINE
8
0
6
CONTINUOUS
10
256.393183
20
-93.0505852
11
241.3931887
21
-93.0374953
0
LINE
8
0
6
CONTINUOUS
10
241.3931887
20
-93.0374953
11
241.3800988
21
-108.0374896
0
LINE
8
0
6
CONTINUOUS
10
241.3952832
20
-90.6374962
11
256.3952775
21
-90.6505861
0
LINE
8
0
6
CONTINUOUS
10
256.3952775
20
-90.6505861
11
256.4083674
21
-75.6505918
0
LINE
8
0
6
CONTINUOUS
10
256.4083674
20
-75.6505918
11
241.4083731
21
-75.6375019
0
LINE
8
0
6
CONTINUOUS
10
241.4083731
20
-75.6375019
11
241.3952832
21
-90.6374962
0
LINE
8
0
6
CONTINUOUS
10
219.3464224
20
-146.6182763
11
234.3464167
21
-146.6313662
0
LINE
8
0
6
CONTINUOUS
10
234.3464167
20
-146.6313662
11
234.3595066
21
-131.6313719
0
LINE
8
0
6
CONTINUOUS
10
234.3595066
20
-131.6313719
11
219.3595123
21
-131.618282
0
LINE
8
0
6
CONTINUOUS
10
219.3595123
20
-131.618282
11
219.3464224
21
-146.6182763
0
LINE
8
0
6
CONTINUOUS
10
239.8890709
20
-147.5360416
11
254.3745648
21
-151.4309697
0
LINE
8
0
6
CONTINUOUS
10
254.3745648
20
-151.4309697
11
258.2694929
21
-136.9454758
0
LINE
8
0
6
CONTINUOUS
10
258.2694929
20
-136.9454758
11
243.783999
21
-133.0505477
0
LINE
8
0
6
CONTINUOUS
10
243.783999
20
-133.0505477
11
239.8890709
21
-147.5360416
0
LINE
8
0
6
CONTINUOUS
10
259.1173629
20
-153.6632601
11
272.1011941
21
-161.1745935
0
LINE
8
0
6
CONTINUOUS
10
272.1011941
20
-161.1745935
11
279.6125275
21
-148.1907623
0
LINE
8
0
6
CONTINUOUS
10
279.6125275
20
-148.1907623
11
266.6286963
21
-140.6794289
0
LINE
8
0
6
CONTINUOUS
10
266.6286963
20
-140.6794289
11
259.1173629
21
-153.6632601
0
ENDSEC
0
EOF