0
SECTION
2
HEADER
9
$INSUNITS
70
4
0
ENDSEC
0
SECTION
2
TABLES
0
TABLE
2
LTYPE
0
LTYPE
72
65
70
0
2
CONTINUOUS
3
______
73
0
40
0
0
LTYPE
72
65
70
0
2
DASHED
3
_ _ _ 
73
2
40
7.5
49
5
49
-2.5
0
LTYPE
72
65
70
0
2
DOTTED
3
. . . 
73
2
40
1.5
49
0.5
49
-1
0
ENDTAB
0
TABLE
2
LAYER
0
ENDTAB
0
ENDSEC
0
SECTION
2
ENTITIES
0
LINE
8
0
6
CONTINUOUS
10
376.99387
20
-157.8657437
11
378.9920418
21
-157.9512388
0
LINE
8
0
6
CONTINUOUS
10
378.9920418
20
-157.9512388
11
379.9324876
21
-135.9713489
0
LINE
8
0
6
CONTINUOUS
10
379.9324876
20
-135.9713489
11
377.9343158
21
-135.8858538
0
LINE
8
0
6
CONTINUOUS
10
377.9343158
20
-135.8858538
11
376.99387
21
-157.8657437
0
ENDSEC
0
EOF