0
SECTION
2
HEADER
9
$INSUNITS
70
4
0
ENDSEC
0
SECTION
2
TABLES
0
TABLE
2
LTYPE
0
LTYPE
72
65
70
0
2
CONTINUOUS
3
______
73
0
40
0
0
LTYPE
72
65
70
0
2
DASHED
3
_ _ _ 
73
2
40
7.5
49
5
49
-2.5
0
LTYPE
72
65
70
0
2
DOTTED
3
. . . 
73
2
40
1.5
49
0.5
49
-1
0
ENDTAB
0
TABLE
2
LAYER
0
ENDTAB
0
ENDSEC
0
SECTION
2
ENTITIES
0
LINE
8
0
6
CONTINUOUS
10
284.3905956
20
-108.9802149
11
284.3958316
21
-114.9802126
0
LINE
8
0
6
CONTINUOUS
10
284.3958316
20
-114.9802126
11
296.395827
21
-114.9697407
0
LINE
8
0
6
CONTINUOUS
10
296.395827
20
-114.9697407
11
296.390591
21
-108.969743
0
LINE
8
0
6
CONTINUOUS
10
296.390591
20
-108.969743
11
284.3905956
21
-108.9802149
0
ENDSEC
0
EOF